<mxfile host="Electron" agent="Mozilla/5.0 (X11; Linux x86_64) AppleWebKit/537.36 (KHTML, like Gecko) draw.io/28.2.5 Chrome/138.0.7204.251 Electron/37.6.1 Safari/537.36" version="28.2.5">
  <diagram name="Page-1" id="5N1QG-RuHGxLHV1p5bVp">
    <mxGraphModel dx="1527" dy="1678" grid="1" gridSize="10" guides="1" tooltips="1" connect="1" arrows="1" fold="1" page="1" pageScale="1" pageWidth="850" pageHeight="1100" math="0" shadow="0">
      <root>
        <mxCell id="0" />
        <mxCell id="1" parent="0" />
        <mxCell id="a9sZFl5pfDBcxFaW0_tR-1" value="&lt;font style=&quot;color: light-dark(rgb(92, 106, 114), rgb(211, 198, 170));&quot;&gt;R0&lt;/font&gt;" style="rounded=0;whiteSpace=wrap;html=1;strokeWidth=1;fillColor=none;strokeColor=light-dark(#5C6A72,#D3C6AA);fontColor=light-dark(#5C6A72,#FDF6E3);fillOpacity=50;fontFamily=LXGW WenKai Mono;fontSize=17;" parent="1" vertex="1">
          <mxGeometry x="1720" y="40" width="120" height="30" as="geometry" />
        </mxCell>
        <mxCell id="a9sZFl5pfDBcxFaW0_tR-2" value="&lt;font style=&quot;color: light-dark(rgb(92, 106, 114), rgb(211, 198, 170));&quot;&gt;R1&lt;/font&gt;" style="rounded=0;whiteSpace=wrap;html=1;strokeWidth=1;fillColor=none;strokeColor=light-dark(#5C6A72,#D3C6AA);fontColor=light-dark(#5C6A72,#FDF6E3);fillOpacity=50;fontFamily=LXGW WenKai Mono;fontSize=17;" parent="1" vertex="1">
          <mxGeometry x="1720" y="70" width="120" height="30" as="geometry" />
        </mxCell>
        <mxCell id="a9sZFl5pfDBcxFaW0_tR-3" value="&lt;font style=&quot;color: light-dark(rgb(92, 106, 114), rgb(211, 198, 170));&quot;&gt;R2&lt;/font&gt;" style="rounded=0;whiteSpace=wrap;html=1;strokeWidth=1;fillColor=none;strokeColor=light-dark(#5C6A72,#D3C6AA);fontColor=light-dark(#5C6A72,#FDF6E3);fillOpacity=50;fontFamily=LXGW WenKai Mono;fontSize=17;" parent="1" vertex="1">
          <mxGeometry x="1720" y="100" width="120" height="30" as="geometry" />
        </mxCell>
        <mxCell id="a9sZFl5pfDBcxFaW0_tR-4" value="&lt;font style=&quot;color: light-dark(rgb(92, 106, 114), rgb(211, 198, 170));&quot;&gt;R3&lt;/font&gt;" style="rounded=0;whiteSpace=wrap;html=1;strokeWidth=1;fillColor=none;strokeColor=light-dark(#5C6A72,#D3C6AA);fontColor=light-dark(#5C6A72,#FDF6E3);fillOpacity=50;fontFamily=LXGW WenKai Mono;fontSize=17;" parent="1" vertex="1">
          <mxGeometry x="1720" y="130" width="120" height="30" as="geometry" />
        </mxCell>
        <mxCell id="a9sZFl5pfDBcxFaW0_tR-5" value="&lt;font style=&quot;color: light-dark(rgb(92, 106, 114), rgb(211, 198, 170));&quot;&gt;R4&lt;/font&gt;" style="rounded=0;whiteSpace=wrap;html=1;strokeWidth=1;fillColor=none;strokeColor=light-dark(#5C6A72,#D3C6AA);fontColor=light-dark(#5C6A72,#FDF6E3);fillOpacity=50;fontFamily=LXGW WenKai Mono;fontSize=17;" parent="1" vertex="1">
          <mxGeometry x="1720" y="160" width="120" height="30" as="geometry" />
        </mxCell>
        <mxCell id="a9sZFl5pfDBcxFaW0_tR-6" value="&lt;font style=&quot;color: light-dark(rgb(92, 106, 114), rgb(211, 198, 170));&quot;&gt;R5&lt;/font&gt;" style="rounded=0;whiteSpace=wrap;html=1;strokeWidth=1;fillColor=none;strokeColor=light-dark(#5C6A72,#D3C6AA);fontColor=light-dark(#5C6A72,#FDF6E3);fillOpacity=50;fontFamily=LXGW WenKai Mono;fontSize=17;" parent="1" vertex="1">
          <mxGeometry x="1720" y="190" width="120" height="30" as="geometry" />
        </mxCell>
        <mxCell id="a9sZFl5pfDBcxFaW0_tR-7" value="&lt;font style=&quot;color: light-dark(rgb(92, 106, 114), rgb(211, 198, 170));&quot;&gt;R6&lt;/font&gt;" style="rounded=0;whiteSpace=wrap;html=1;strokeWidth=1;fillColor=none;strokeColor=light-dark(#5C6A72,#D3C6AA);fontColor=light-dark(#5C6A72,#FDF6E3);fillOpacity=50;fontFamily=LXGW WenKai Mono;fontSize=17;" parent="1" vertex="1">
          <mxGeometry x="1720" y="220" width="120" height="30" as="geometry" />
        </mxCell>
        <mxCell id="a9sZFl5pfDBcxFaW0_tR-8" value="&lt;font style=&quot;color: light-dark(rgb(92, 106, 114), rgb(211, 198, 170));&quot;&gt;R7&lt;/font&gt;" style="rounded=0;whiteSpace=wrap;html=1;strokeWidth=1;fillColor=none;strokeColor=light-dark(#5C6A72,#D3C6AA);fontColor=light-dark(#5C6A72,#FDF6E3);fillOpacity=50;fontFamily=LXGW WenKai Mono;fontSize=17;" parent="1" vertex="1">
          <mxGeometry x="1720" y="250" width="120" height="30" as="geometry" />
        </mxCell>
        <mxCell id="a9sZFl5pfDBcxFaW0_tR-9" value="&lt;font style=&quot;color: light-dark(rgb(92, 106, 114), rgb(211, 198, 170));&quot;&gt;R8&lt;/font&gt;" style="rounded=0;whiteSpace=wrap;html=1;strokeWidth=1;fillColor=none;strokeColor=light-dark(#5C6A72,#D3C6AA);fontColor=light-dark(#5C6A72,#FDF6E3);fillOpacity=50;fontFamily=LXGW WenKai Mono;fontSize=17;" parent="1" vertex="1">
          <mxGeometry x="1720" y="280" width="120" height="30" as="geometry" />
        </mxCell>
        <mxCell id="a9sZFl5pfDBcxFaW0_tR-10" value="&lt;font style=&quot;color: light-dark(rgb(92, 106, 114), rgb(211, 198, 170));&quot;&gt;R9&lt;/font&gt;" style="rounded=0;whiteSpace=wrap;html=1;strokeWidth=1;fillColor=none;strokeColor=light-dark(#5C6A72,#D3C6AA);fontColor=light-dark(#5C6A72,#FDF6E3);fillOpacity=50;fontFamily=LXGW WenKai Mono;fontSize=17;" parent="1" vertex="1">
          <mxGeometry x="1720" y="310" width="120" height="30" as="geometry" />
        </mxCell>
        <mxCell id="a9sZFl5pfDBcxFaW0_tR-11" value="&lt;font style=&quot;color: light-dark(rgb(92, 106, 114), rgb(211, 198, 170));&quot;&gt;R10&lt;/font&gt;" style="rounded=0;whiteSpace=wrap;html=1;strokeWidth=1;fillColor=none;strokeColor=light-dark(#5C6A72,#D3C6AA);fontColor=light-dark(#5C6A72,#FDF6E3);fillOpacity=50;fontFamily=LXGW WenKai Mono;fontSize=17;" parent="1" vertex="1">
          <mxGeometry x="1720" y="340" width="120" height="30" as="geometry" />
        </mxCell>
        <mxCell id="a9sZFl5pfDBcxFaW0_tR-12" value="&lt;font style=&quot;color: light-dark(rgb(92, 106, 114), rgb(211, 198, 170));&quot;&gt;R11&lt;/font&gt;" style="rounded=0;whiteSpace=wrap;html=1;strokeWidth=1;fillColor=none;strokeColor=light-dark(#5C6A72,#D3C6AA);fontColor=light-dark(#5C6A72,#FDF6E3);fillOpacity=50;fontFamily=LXGW WenKai Mono;fontSize=17;" parent="1" vertex="1">
          <mxGeometry x="1720" y="370" width="120" height="30" as="geometry" />
        </mxCell>
        <mxCell id="a9sZFl5pfDBcxFaW0_tR-13" value="&lt;font style=&quot;color: light-dark(rgb(92, 106, 114), rgb(211, 198, 170));&quot;&gt;R12&lt;/font&gt;" style="rounded=0;whiteSpace=wrap;html=1;strokeWidth=1;fillColor=none;strokeColor=light-dark(#5C6A72,#D3C6AA);fontColor=light-dark(#5C6A72,#FDF6E3);fillOpacity=50;fontFamily=LXGW WenKai Mono;fontSize=17;" parent="1" vertex="1">
          <mxGeometry x="1720" y="400" width="120" height="30" as="geometry" />
        </mxCell>
        <mxCell id="a9sZFl5pfDBcxFaW0_tR-14" value="&lt;font style=&quot;color: light-dark(rgb(92, 106, 114), rgb(211, 198, 170));&quot;&gt;R13 (分组)&lt;/font&gt;" style="rounded=0;whiteSpace=wrap;html=1;strokeWidth=1;fillColor=none;strokeColor=light-dark(#5C6A72,#D3C6AA);fontColor=light-dark(#5C6A72,#FDF6E3);fillOpacity=50;fontFamily=LXGW WenKai Mono;fontSize=17;" parent="1" vertex="1">
          <mxGeometry x="1720" y="430" width="120" height="30" as="geometry" />
        </mxCell>
        <mxCell id="a9sZFl5pfDBcxFaW0_tR-15" value="&lt;font style=&quot;color: light-dark(rgb(92, 106, 114), rgb(211, 198, 170));&quot;&gt;R14&lt;/font&gt;" style="rounded=0;whiteSpace=wrap;html=1;strokeWidth=1;fillColor=none;strokeColor=light-dark(#5C6A72,#D3C6AA);fontColor=light-dark(#5C6A72,#FDF6E3);fillOpacity=50;fontFamily=LXGW WenKai Mono;fontSize=17;" parent="1" vertex="1">
          <mxGeometry x="1720" y="460" width="120" height="30" as="geometry" />
        </mxCell>
        <mxCell id="a9sZFl5pfDBcxFaW0_tR-16" value="&lt;font style=&quot;color: light-dark(rgb(92, 106, 114), rgb(211, 198, 170));&quot;&gt;R15&lt;/font&gt;" style="rounded=0;whiteSpace=wrap;html=1;strokeWidth=1;fillColor=none;strokeColor=light-dark(#5C6A72,#D3C6AA);fontColor=light-dark(#5C6A72,#FDF6E3);fillOpacity=50;fontFamily=LXGW WenKai Mono;fontSize=17;" parent="1" vertex="1">
          <mxGeometry x="1720" y="490" width="120" height="30" as="geometry" />
        </mxCell>
        <mxCell id="a9sZFl5pfDBcxFaW0_tR-17" value="" style="shape=curlyBracket;whiteSpace=wrap;html=1;rounded=1;flipH=1;labelPosition=right;verticalLabelPosition=middle;align=left;verticalAlign=middle;strokeColor=light-dark(#5C6A72,#D3C6AA);fontColor=light-dark(#5C6A72,#FDF6E3);fontFamily=LXGW WenKai Mono;fillColor=none;fontSize=17;" parent="1" vertex="1">
          <mxGeometry x="1840" y="40" width="30" height="240" as="geometry" />
        </mxCell>
        <mxCell id="a9sZFl5pfDBcxFaW0_tR-18" value="" style="shape=curlyBracket;whiteSpace=wrap;html=1;rounded=1;flipH=1;labelPosition=right;verticalLabelPosition=middle;align=left;verticalAlign=middle;strokeColor=light-dark(#5C6A72,#D3C6AA);fontColor=light-dark(#5C6A72,#FDF6E3);fontFamily=LXGW WenKai Mono;fillColor=none;fontSize=17;" parent="1" vertex="1">
          <mxGeometry x="1840" y="280" width="30" height="150" as="geometry" />
        </mxCell>
        <mxCell id="a9sZFl5pfDBcxFaW0_tR-19" value="&lt;span style=&quot;text-wrap-mode: nowrap;&quot;&gt;&lt;font style=&quot;color: light-dark(rgb(92, 106, 114), rgb(211, 198, 170));&quot;&gt;程序计数器 (PC)&lt;/font&gt;&lt;/span&gt;" style="rounded=0;whiteSpace=wrap;html=1;strokeWidth=1;fillColor=none;strokeColor=none;fontColor=light-dark(#5C6A72,#FDF6E3);fillOpacity=50;fontFamily=LXGW WenKai Mono;align=left;fontSize=17;" parent="1" vertex="1">
          <mxGeometry x="1850" y="495" width="150" height="20" as="geometry" />
        </mxCell>
        <mxCell id="a9sZFl5pfDBcxFaW0_tR-20" value="&lt;span style=&quot;text-wrap-mode: nowrap;&quot;&gt;&lt;font style=&quot;color: light-dark(rgb(92, 106, 114), rgb(211, 198, 170));&quot;&gt;链接寄存器 (LR)&lt;/font&gt;&lt;/span&gt;" style="rounded=0;whiteSpace=wrap;html=1;strokeWidth=1;fillColor=none;strokeColor=none;fontColor=light-dark(#5C6A72,#FDF6E3);fillOpacity=50;fontFamily=LXGW WenKai Mono;align=left;fontSize=17;" parent="1" vertex="1">
          <mxGeometry x="1850" y="465" width="150" height="20" as="geometry" />
        </mxCell>
        <mxCell id="a9sZFl5pfDBcxFaW0_tR-21" value="&lt;span style=&quot;text-wrap-mode: nowrap;&quot;&gt;&lt;font style=&quot;color: light-dark(rgb(92, 106, 114), rgb(211, 198, 170));&quot;&gt;栈指针 (SP)，包含主栈指针 (MSP) 和进程栈指针 (PSP)&lt;/font&gt;&lt;/span&gt;" style="rounded=0;whiteSpace=wrap;html=1;strokeWidth=1;fillColor=none;strokeColor=none;fontColor=light-dark(#5C6A72,#FDF6E3);fillOpacity=50;fontFamily=LXGW WenKai Mono;align=left;fontSize=17;" parent="1" vertex="1">
          <mxGeometry x="1850" y="435" width="400" height="20" as="geometry" />
        </mxCell>
        <mxCell id="a9sZFl5pfDBcxFaW0_tR-22" value="&lt;span style=&quot;text-wrap-mode: nowrap;&quot;&gt;&lt;font style=&quot;color: light-dark(rgb(92, 106, 114), rgb(211, 198, 170));&quot;&gt;通用寄存器（高寄存器）&lt;/font&gt;&lt;/span&gt;" style="rounded=0;whiteSpace=wrap;html=1;strokeWidth=1;fillColor=none;strokeColor=none;fontColor=light-dark(#5C6A72,#FDF6E3);fillOpacity=50;fontFamily=LXGW WenKai Mono;align=left;fontSize=17;" parent="1" vertex="1">
          <mxGeometry x="1870" y="345" width="170" height="20" as="geometry" />
        </mxCell>
        <mxCell id="a9sZFl5pfDBcxFaW0_tR-23" value="&lt;span style=&quot;text-wrap-mode: nowrap;&quot;&gt;&lt;font style=&quot;color: light-dark(rgb(92, 106, 114), rgb(211, 198, 170));&quot;&gt;通用寄存器（低寄存器）&lt;/font&gt;&lt;/span&gt;" style="rounded=0;whiteSpace=wrap;html=1;strokeWidth=1;fillColor=none;strokeColor=none;fontColor=light-dark(#5C6A72,#FDF6E3);fillOpacity=50;fontFamily=LXGW WenKai Mono;align=left;fontSize=17;" parent="1" vertex="1">
          <mxGeometry x="1870" y="150" width="170" height="20" as="geometry" />
        </mxCell>
        <mxCell id="a9sZFl5pfDBcxFaW0_tR-33" value="&lt;font style=&quot;color: light-dark(rgb(92, 106, 114), rgb(211, 198, 170));&quot;&gt;取指&lt;/font&gt;" style="rounded=0;whiteSpace=wrap;html=1;strokeWidth=1;fillColor=light-dark(#E67E80,#E67E80);strokeColor=light-dark(#5C6A72,#D3C6AA);perimeterSpacing=0;glass=0;shadow=0;fillStyle=solid;fillOpacity=50;fontColor=light-dark(#5C6A72,#D3C6AA);fontFamily=LXGW WenKai Mono;fontSize=17;" parent="1" vertex="1">
          <mxGeometry x="2080" y="770.3000000000001" width="80" height="30" as="geometry" />
        </mxCell>
        <mxCell id="a9sZFl5pfDBcxFaW0_tR-34" value="&lt;font style=&quot;color: light-dark(rgb(92, 106, 114), rgb(211, 198, 170));&quot;&gt;执行&lt;/font&gt;" style="rounded=0;whiteSpace=wrap;html=1;strokeWidth=1;fillColor=light-dark(#7FBBB3,#7FBBB3);strokeColor=light-dark(#5C6A72,#D3C6AA);fontColor=light-dark(#5C6A72,#D3C6AA);fillOpacity=50;fontFamily=LXGW WenKai Mono;fontSize=17;" parent="1" vertex="1">
          <mxGeometry x="2240" y="770.3" width="80" height="30" as="geometry" />
        </mxCell>
        <mxCell id="a9sZFl5pfDBcxFaW0_tR-35" value="&lt;font style=&quot;color: light-dark(rgb(92, 106, 114), rgb(211, 198, 170));&quot;&gt;解码&lt;/font&gt;" style="rounded=0;whiteSpace=wrap;html=1;strokeWidth=1;fillColor=light-dark(#A7C080,#A7C080);strokeColor=light-dark(#5C6A72,#D3C6AA);fontColor=light-dark(#5C6A72,#D3C6AA);fillOpacity=50;fontFamily=LXGW WenKai Mono;fontSize=17;" parent="1" vertex="1">
          <mxGeometry x="2160" y="770.3" width="80" height="30" as="geometry" />
        </mxCell>
        <mxCell id="a9sZFl5pfDBcxFaW0_tR-36" value="" style="endArrow=blockThin;html=1;rounded=0;endFill=1;strokeColor=light-dark(#5C6A72,#D3C6AA);fontSize=17;fontFamily=LXGW WenKai Mono;fontColor=light-dark(#5C6A72,#D3C6AA);" parent="1" edge="1">
          <mxGeometry width="50" height="50" relative="1" as="geometry">
            <mxPoint x="1840" y="820.3" as="sourcePoint" />
            <mxPoint x="2340" y="820" as="targetPoint" />
          </mxGeometry>
        </mxCell>
        <mxCell id="a9sZFl5pfDBcxFaW0_tR-37" value="&lt;span style=&quot;text-align: center; text-wrap-mode: nowrap;&quot;&gt;&lt;font style=&quot;color: light-dark(rgb(92, 106, 114), rgb(211, 198, 170));&quot;&gt;指令 N&lt;/font&gt;&lt;/span&gt;" style="rounded=0;whiteSpace=wrap;html=1;strokeWidth=1;fillColor=none;strokeColor=none;fontColor=light-dark(#5C6A72,#D3C6AA);fillOpacity=50;fontFamily=LXGW WenKai Mono;align=left;fontSize=17;" parent="1" vertex="1">
          <mxGeometry x="1720" y="680.5999999999999" width="80" height="29.7" as="geometry" />
        </mxCell>
        <mxCell id="a9sZFl5pfDBcxFaW0_tR-38" value="&lt;span style=&quot;text-align: center; text-wrap-mode: nowrap;&quot;&gt;&lt;font style=&quot;color: light-dark(rgb(92, 106, 114), rgb(211, 198, 170));&quot;&gt;指令 N + 1&lt;/font&gt;&lt;/span&gt;" style="rounded=0;whiteSpace=wrap;html=1;strokeWidth=1;fillColor=none;strokeColor=none;fontColor=light-dark(#5C6A72,#D3C6AA);fillOpacity=50;fontFamily=LXGW WenKai Mono;align=left;fontSize=17;" parent="1" vertex="1">
          <mxGeometry x="1720" y="710.5999999999999" width="80" height="29.7" as="geometry" />
        </mxCell>
        <mxCell id="a9sZFl5pfDBcxFaW0_tR-39" value="&lt;span style=&quot;text-align: center; text-wrap-mode: nowrap;&quot;&gt;&lt;font style=&quot;color: light-dark(rgb(92, 106, 114), rgb(211, 198, 170));&quot;&gt;指令 N + 2&lt;/font&gt;&lt;/span&gt;" style="rounded=0;whiteSpace=wrap;html=1;strokeWidth=1;fillColor=none;strokeColor=none;fontColor=light-dark(#5C6A72,#D3C6AA);fillOpacity=50;fontFamily=LXGW WenKai Mono;align=left;fontSize=17;" parent="1" vertex="1">
          <mxGeometry x="1720" y="740.5999999999999" width="80" height="29.7" as="geometry" />
        </mxCell>
        <mxCell id="a9sZFl5pfDBcxFaW0_tR-40" value="&lt;span style=&quot;text-align: center; text-wrap-mode: nowrap;&quot;&gt;&lt;font style=&quot;color: light-dark(rgb(92, 106, 114), rgb(211, 198, 170));&quot;&gt;指令 N + 3&lt;/font&gt;&lt;/span&gt;" style="rounded=0;whiteSpace=wrap;html=1;strokeWidth=1;fillColor=none;strokeColor=none;fontColor=light-dark(#5C6A72,#D3C6AA);fillOpacity=50;fontFamily=LXGW WenKai Mono;align=left;fontSize=17;" parent="1" vertex="1">
          <mxGeometry x="1720" y="770.3" width="80" height="30" as="geometry" />
        </mxCell>
        <mxCell id="a9sZFl5pfDBcxFaW0_tR-50" value="&lt;font style=&quot;color: light-dark(rgb(92, 106, 114), rgb(211, 198, 170));&quot;&gt;取指&lt;/font&gt;" style="rounded=0;whiteSpace=wrap;html=1;strokeWidth=1;fillColor=light-dark(#E67E80,#E67E80);strokeColor=light-dark(#5C6A72,#D3C6AA);perimeterSpacing=0;glass=0;shadow=0;fillStyle=solid;fillOpacity=50;fontColor=light-dark(#5C6A72,#D3C6AA);fontFamily=LXGW WenKai Mono;fontSize=17;" parent="1" vertex="1">
          <mxGeometry x="2000" y="740.3000000000001" width="80" height="30" as="geometry" />
        </mxCell>
        <mxCell id="a9sZFl5pfDBcxFaW0_tR-51" value="&lt;font style=&quot;color: light-dark(rgb(92, 106, 114), rgb(211, 198, 170));&quot;&gt;执行&lt;/font&gt;" style="rounded=0;whiteSpace=wrap;html=1;strokeWidth=1;fillColor=light-dark(#7FBBB3,#7FBBB3);strokeColor=light-dark(#5C6A72,#D3C6AA);fontColor=light-dark(#5C6A72,#D3C6AA);fillOpacity=50;fontFamily=LXGW WenKai Mono;fontSize=17;" parent="1" vertex="1">
          <mxGeometry x="2160" y="740.3" width="80" height="30" as="geometry" />
        </mxCell>
        <mxCell id="a9sZFl5pfDBcxFaW0_tR-52" value="&lt;font style=&quot;color: light-dark(rgb(92, 106, 114), rgb(211, 198, 170));&quot;&gt;解码&lt;/font&gt;" style="rounded=0;whiteSpace=wrap;html=1;strokeWidth=1;fillColor=light-dark(#A7C080,#A7C080);strokeColor=light-dark(#5C6A72,#D3C6AA);fontColor=light-dark(#5C6A72,#D3C6AA);fillOpacity=50;fontFamily=LXGW WenKai Mono;fontSize=17;" parent="1" vertex="1">
          <mxGeometry x="2080" y="740.3" width="80" height="30" as="geometry" />
        </mxCell>
        <mxCell id="a9sZFl5pfDBcxFaW0_tR-53" value="&lt;font style=&quot;color: light-dark(rgb(92, 106, 114), rgb(211, 198, 170));&quot;&gt;取指&lt;/font&gt;" style="rounded=0;whiteSpace=wrap;html=1;strokeWidth=1;fillColor=light-dark(#E67E80,#E67E80);strokeColor=light-dark(#5C6A72,#D3C6AA);perimeterSpacing=0;glass=0;shadow=0;fillStyle=solid;fillOpacity=50;fontColor=light-dark(#5C6A72,#D3C6AA);fontFamily=LXGW WenKai Mono;fontSize=17;" parent="1" vertex="1">
          <mxGeometry x="1920" y="710.3000000000002" width="80" height="30" as="geometry" />
        </mxCell>
        <mxCell id="a9sZFl5pfDBcxFaW0_tR-54" value="&lt;font style=&quot;color: light-dark(rgb(92, 106, 114), rgb(211, 198, 170));&quot;&gt;执行&lt;/font&gt;" style="rounded=0;whiteSpace=wrap;html=1;strokeWidth=1;fillColor=light-dark(#7FBBB3,#7FBBB3);strokeColor=light-dark(#5C6A72,#D3C6AA);fontColor=light-dark(#5C6A72,#D3C6AA);fillOpacity=50;fontFamily=LXGW WenKai Mono;fontSize=17;" parent="1" vertex="1">
          <mxGeometry x="2080" y="710.3000000000001" width="80" height="30" as="geometry" />
        </mxCell>
        <mxCell id="a9sZFl5pfDBcxFaW0_tR-55" value="&lt;font style=&quot;color: light-dark(rgb(92, 106, 114), rgb(211, 198, 170));&quot;&gt;解码&lt;/font&gt;" style="rounded=0;whiteSpace=wrap;html=1;strokeWidth=1;fillColor=light-dark(#A7C080,#A7C080);strokeColor=light-dark(#5C6A72,#D3C6AA);fontColor=light-dark(#5C6A72,#D3C6AA);fillOpacity=50;fontFamily=LXGW WenKai Mono;fontSize=17;" parent="1" vertex="1">
          <mxGeometry x="2000" y="710.3000000000001" width="80" height="30" as="geometry" />
        </mxCell>
        <mxCell id="a9sZFl5pfDBcxFaW0_tR-56" value="&lt;font style=&quot;color: light-dark(rgb(92, 106, 114), rgb(211, 198, 170));&quot;&gt;取指&lt;/font&gt;" style="rounded=0;whiteSpace=wrap;html=1;strokeWidth=1;fillColor=light-dark(#E67E80,#E67E80);strokeColor=light-dark(#5C6A72,#D3C6AA);perimeterSpacing=0;glass=0;shadow=0;fillStyle=solid;fillOpacity=50;fontColor=light-dark(#5C6A72,#D3C6AA);fontFamily=LXGW WenKai Mono;fontSize=17;" parent="1" vertex="1">
          <mxGeometry x="1840" y="680.3000000000002" width="80" height="30" as="geometry" />
        </mxCell>
        <mxCell id="a9sZFl5pfDBcxFaW0_tR-57" value="&lt;font style=&quot;color: light-dark(rgb(92, 106, 114), rgb(211, 198, 170));&quot;&gt;执行&lt;/font&gt;" style="rounded=0;whiteSpace=wrap;html=1;strokeWidth=1;fillColor=light-dark(#7FBBB3,#7FBBB3);strokeColor=light-dark(#5C6A72,#D3C6AA);fontColor=light-dark(#5C6A72,#D3C6AA);fillOpacity=50;fontFamily=LXGW WenKai Mono;fontSize=17;" parent="1" vertex="1">
          <mxGeometry x="2000" y="680.3000000000001" width="80" height="30" as="geometry" />
        </mxCell>
        <mxCell id="a9sZFl5pfDBcxFaW0_tR-58" value="&lt;font style=&quot;color: light-dark(rgb(92, 106, 114), rgb(211, 198, 170));&quot;&gt;解码&lt;/font&gt;" style="rounded=0;whiteSpace=wrap;html=1;strokeWidth=1;fillColor=light-dark(#A7C080,#A7C080);strokeColor=light-dark(#5C6A72,#D3C6AA);fontColor=light-dark(#5C6A72,#D3C6AA);fillOpacity=50;fontFamily=LXGW WenKai Mono;fontSize=17;" parent="1" vertex="1">
          <mxGeometry x="1920" y="680.3000000000001" width="80" height="30" as="geometry" />
        </mxCell>
        <mxCell id="a9sZFl5pfDBcxFaW0_tR-59" value="" style="rounded=0;whiteSpace=wrap;html=1;strokeWidth=1;fillColor=none;strokeColor=light-dark(#5C6A72,#D3C6AA);fontColor=light-dark(#5C6A72,#D3C6AA);fillOpacity=50;labelBackgroundColor=none;fontFamily=LXGW WenKai Mono;fontSize=17;" parent="1" vertex="1">
          <mxGeometry x="2000" y="990" width="280" height="190" as="geometry" />
        </mxCell>
        <mxCell id="a9sZFl5pfDBcxFaW0_tR-60" value="&lt;span style=&quot;text-wrap-mode: nowrap;&quot;&gt;&lt;font style=&quot;color: light-dark(rgb(92, 106, 114), rgb(211, 198, 170));&quot;&gt;0x0000&lt;/font&gt;&lt;/span&gt;" style="rounded=0;whiteSpace=wrap;html=1;strokeWidth=1;fillColor=light-dark(#A7C080,#A7C080);strokeColor=none;fontColor=light-dark(#5C6A72,#D3C6AA);fillOpacity=50;labelBackgroundColor=none;fontFamily=LXGW WenKai Mono;fontSize=17;" parent="1" vertex="1">
          <mxGeometry x="1720" y="990" width="80" height="30" as="geometry" />
        </mxCell>
        <mxCell id="a9sZFl5pfDBcxFaW0_tR-61" value="&lt;font style=&quot;color: light-dark(rgb(92, 106, 114), rgb(211, 198, 170));&quot;&gt;0x1&lt;/font&gt;" style="rounded=0;whiteSpace=wrap;html=1;strokeWidth=1;fillColor=none;strokeColor=light-dark(#5C6A72,#D3C6AA);fontColor=light-dark(#5C6A72,#D3C6AA);fillOpacity=50;labelBackgroundColor=none;fontFamily=LXGW WenKai Mono;fontSize=17;" parent="1" vertex="1">
          <mxGeometry x="1800" y="990" width="120" height="30" as="geometry" />
        </mxCell>
        <mxCell id="a9sZFl5pfDBcxFaW0_tR-62" value="" style="rounded=0;whiteSpace=wrap;html=1;strokeWidth=1;fillColor=none;strokeColor=light-dark(#5C6A72,#D3C6AA);fontColor=light-dark(#5C6A72,#D3C6AA);fillOpacity=50;labelBackgroundColor=none;fontFamily=LXGW WenKai Mono;fontSize=17;" parent="1" vertex="1">
          <mxGeometry x="1800" y="1020" width="120" height="30" as="geometry" />
        </mxCell>
        <mxCell id="a9sZFl5pfDBcxFaW0_tR-63" value="" style="rounded=0;whiteSpace=wrap;html=1;strokeWidth=1;fillColor=none;strokeColor=light-dark(#5C6A72,#D3C6AA);fontColor=light-dark(#5C6A72,#D3C6AA);fillOpacity=50;labelBackgroundColor=none;fontFamily=LXGW WenKai Mono;fontSize=17;" parent="1" vertex="1">
          <mxGeometry x="1800" y="1050" width="120" height="30" as="geometry" />
        </mxCell>
        <mxCell id="a9sZFl5pfDBcxFaW0_tR-64" value="" style="rounded=0;whiteSpace=wrap;html=1;strokeWidth=1;fillColor=none;strokeColor=light-dark(#5C6A72,#D3C6AA);fontColor=light-dark(#5C6A72,#D3C6AA);fillOpacity=50;labelBackgroundColor=none;fontFamily=LXGW WenKai Mono;fontSize=17;" parent="1" vertex="1">
          <mxGeometry x="1800" y="1080" width="120" height="30" as="geometry" />
        </mxCell>
        <mxCell id="a9sZFl5pfDBcxFaW0_tR-65" value="&lt;font style=&quot;color: light-dark(rgb(92, 106, 114), rgb(211, 198, 170));&quot;&gt;0x78&lt;/font&gt;" style="rounded=0;whiteSpace=wrap;html=1;strokeWidth=1;fillColor=none;strokeColor=light-dark(#5C6A72,#D3C6AA);fontColor=light-dark(#5C6A72,#D3C6AA);fillOpacity=50;labelBackgroundColor=none;fontFamily=LXGW WenKai Mono;fontSize=17;" parent="1" vertex="1">
          <mxGeometry x="1800" y="1110" width="120" height="30" as="geometry" />
        </mxCell>
        <mxCell id="a9sZFl5pfDBcxFaW0_tR-66" value="&lt;font style=&quot;color: light-dark(rgb(92, 106, 114), rgb(211, 198, 170));&quot;&gt;0x56&lt;/font&gt;" style="rounded=0;whiteSpace=wrap;html=1;strokeWidth=1;fillColor=none;strokeColor=light-dark(#5C6A72,#D3C6AA);fontColor=light-dark(#5C6A72,#D3C6AA);fillOpacity=50;labelBackgroundColor=none;fontFamily=LXGW WenKai Mono;fontSize=17;" parent="1" vertex="1">
          <mxGeometry x="1800" y="1140" width="120" height="30" as="geometry" />
        </mxCell>
        <mxCell id="a9sZFl5pfDBcxFaW0_tR-67" value="&lt;font style=&quot;color: light-dark(rgb(92, 106, 114), rgb(211, 198, 170));&quot;&gt;0x34&lt;/font&gt;" style="rounded=0;whiteSpace=wrap;html=1;strokeWidth=1;fillColor=none;strokeColor=light-dark(#5C6A72,#D3C6AA);fontColor=light-dark(#5C6A72,#D3C6AA);fillOpacity=50;labelBackgroundColor=none;fontFamily=LXGW WenKai Mono;fontSize=17;" parent="1" vertex="1">
          <mxGeometry x="1800" y="1170" width="120" height="30" as="geometry" />
        </mxCell>
        <mxCell id="a9sZFl5pfDBcxFaW0_tR-68" value="&lt;font style=&quot;color: light-dark(rgb(92, 106, 114), rgb(211, 198, 170));&quot;&gt;0x12&lt;/font&gt;" style="rounded=0;whiteSpace=wrap;html=1;strokeWidth=1;fillColor=none;strokeColor=light-dark(#5C6A72,#D3C6AA);fontColor=light-dark(#5C6A72,#D3C6AA);fillOpacity=50;labelBackgroundColor=none;fontFamily=LXGW WenKai Mono;fontSize=17;" parent="1" vertex="1">
          <mxGeometry x="1800" y="1200" width="120" height="30" as="geometry" />
        </mxCell>
        <mxCell id="a9sZFl5pfDBcxFaW0_tR-69" value="" style="rounded=0;whiteSpace=wrap;html=1;strokeWidth=1;fillColor=none;strokeColor=light-dark(#5C6A72,#D3C6AA);fontColor=light-dark(#5C6A72,#D3C6AA);fillOpacity=50;labelBackgroundColor=none;fontFamily=LXGW WenKai Mono;fontSize=17;" parent="1" vertex="1">
          <mxGeometry x="1800" y="1230" width="120" height="30" as="geometry" />
        </mxCell>
        <mxCell id="a9sZFl5pfDBcxFaW0_tR-70" value="" style="rounded=0;whiteSpace=wrap;html=1;strokeWidth=1;fillColor=none;strokeColor=light-dark(#5C6A72,#D3C6AA);fontColor=light-dark(#5C6A72,#D3C6AA);fillOpacity=50;labelBackgroundColor=none;fontFamily=LXGW WenKai Mono;fontSize=17;" parent="1" vertex="1">
          <mxGeometry x="1800" y="1260" width="120" height="30" as="geometry" />
        </mxCell>
        <mxCell id="a9sZFl5pfDBcxFaW0_tR-71" value="" style="rounded=0;whiteSpace=wrap;html=1;strokeWidth=1;fillColor=none;strokeColor=light-dark(#5C6A72,#D3C6AA);fontColor=light-dark(#5C6A72,#D3C6AA);fillOpacity=50;labelBackgroundColor=none;fontFamily=LXGW WenKai Mono;fontSize=17;" parent="1" vertex="1">
          <mxGeometry x="1800" y="1290" width="120" height="30" as="geometry" />
        </mxCell>
        <mxCell id="a9sZFl5pfDBcxFaW0_tR-72" value="" style="rounded=0;whiteSpace=wrap;html=1;strokeWidth=1;fillColor=none;strokeColor=light-dark(#5C6A72,#D3C6AA);fontColor=light-dark(#5C6A72,#D3C6AA);fillOpacity=50;labelBackgroundColor=none;fontFamily=LXGW WenKai Mono;fontSize=17;" parent="1" vertex="1">
          <mxGeometry x="1800" y="1320" width="120" height="30" as="geometry" />
        </mxCell>
        <mxCell id="a9sZFl5pfDBcxFaW0_tR-73" value="" style="rounded=0;whiteSpace=wrap;html=1;strokeWidth=1;fillColor=none;strokeColor=light-dark(#5C6A72,#D3C6AA);fontColor=light-dark(#5C6A72,#D3C6AA);fillOpacity=50;labelBackgroundColor=none;fontFamily=LXGW WenKai Mono;fontSize=17;" parent="1" vertex="1">
          <mxGeometry x="1800" y="1350" width="120" height="30" as="geometry" />
        </mxCell>
        <mxCell id="a9sZFl5pfDBcxFaW0_tR-74" value="" style="rounded=0;whiteSpace=wrap;html=1;strokeWidth=1;fillColor=none;strokeColor=light-dark(#5C6A72,#D3C6AA);fontColor=light-dark(#5C6A72,#D3C6AA);fillOpacity=50;labelBackgroundColor=none;fontFamily=LXGW WenKai Mono;fontSize=17;" parent="1" vertex="1">
          <mxGeometry x="1800" y="1380" width="120" height="30" as="geometry" />
        </mxCell>
        <mxCell id="a9sZFl5pfDBcxFaW0_tR-75" value="" style="rounded=0;whiteSpace=wrap;html=1;strokeWidth=1;fillColor=none;strokeColor=light-dark(#5C6A72,#D3C6AA);fontColor=light-dark(#5C6A72,#D3C6AA);fillOpacity=50;labelBackgroundColor=none;fontFamily=LXGW WenKai Mono;fontSize=17;" parent="1" vertex="1">
          <mxGeometry x="1800" y="1410.3" width="120" height="29.7" as="geometry" />
        </mxCell>
        <mxCell id="a9sZFl5pfDBcxFaW0_tR-76" value="" style="rounded=0;whiteSpace=wrap;html=1;strokeWidth=1;fillColor=none;strokeColor=light-dark(#5C6A72,#D3C6AA);fontColor=light-dark(#5C6A72,#D3C6AA);fillOpacity=50;labelBackgroundColor=none;fontFamily=LXGW WenKai Mono;fontSize=17;" parent="1" vertex="1">
          <mxGeometry x="1800" y="1440" width="120" height="30" as="geometry" />
        </mxCell>
        <mxCell id="a9sZFl5pfDBcxFaW0_tR-77" value="&lt;span style=&quot;text-wrap-mode: nowrap;&quot;&gt;&lt;font style=&quot;color: light-dark(rgb(92, 106, 114), rgb(211, 198, 170));&quot;&gt;0x0001&lt;/font&gt;&lt;/span&gt;" style="rounded=0;whiteSpace=wrap;html=1;strokeWidth=1;fillColor=none;strokeColor=none;fontColor=light-dark(#5C6A72,#C1C1C1);fillOpacity=50;labelBackgroundColor=none;gradientColor=none;fontFamily=LXGW WenKai Mono;fontSize=17;" parent="1" vertex="1">
          <mxGeometry x="1720" y="1020" width="80" height="30" as="geometry" />
        </mxCell>
        <mxCell id="a9sZFl5pfDBcxFaW0_tR-78" value="&lt;span style=&quot;text-wrap-mode: nowrap;&quot;&gt;&lt;font style=&quot;color: light-dark(rgb(92, 106, 114), rgb(211, 198, 170));&quot;&gt;0x0002&lt;/font&gt;&lt;/span&gt;" style="rounded=0;whiteSpace=wrap;html=1;strokeWidth=1;fillColor=none;strokeColor=none;fontColor=light-dark(#5C6A72,#C1C1C1);fillOpacity=50;labelBackgroundColor=none;gradientColor=none;fontFamily=LXGW WenKai Mono;fontSize=17;" parent="1" vertex="1">
          <mxGeometry x="1720" y="1050" width="80" height="30" as="geometry" />
        </mxCell>
        <mxCell id="a9sZFl5pfDBcxFaW0_tR-79" value="&lt;span style=&quot;text-wrap-mode: nowrap;&quot;&gt;&lt;font style=&quot;color: light-dark(rgb(92, 106, 114), rgb(211, 198, 170));&quot;&gt;0x0003&lt;/font&gt;&lt;/span&gt;" style="rounded=0;whiteSpace=wrap;html=1;strokeWidth=1;fillColor=none;strokeColor=none;fontColor=light-dark(#5C6A72,#C1C1C1);fillOpacity=50;labelBackgroundColor=none;gradientColor=none;fontFamily=LXGW WenKai Mono;fontSize=17;" parent="1" vertex="1">
          <mxGeometry x="1720" y="1080" width="80" height="30" as="geometry" />
        </mxCell>
        <mxCell id="a9sZFl5pfDBcxFaW0_tR-80" value="&lt;span style=&quot;text-wrap-mode: nowrap;&quot;&gt;&lt;font style=&quot;color: light-dark(rgb(92, 106, 114), rgb(211, 198, 170));&quot;&gt;0x0004&lt;/font&gt;&lt;/span&gt;" style="rounded=0;whiteSpace=wrap;html=1;strokeWidth=1;fillColor=light-dark(#A7C080,#A7C080);strokeColor=none;fontColor=light-dark(#5C6A72,#D3C6AA);fillOpacity=50;labelBackgroundColor=none;fontFamily=LXGW WenKai Mono;fontSize=17;" parent="1" vertex="1">
          <mxGeometry x="1720" y="1110" width="80" height="30" as="geometry" />
        </mxCell>
        <mxCell id="a9sZFl5pfDBcxFaW0_tR-81" value="&lt;span style=&quot;text-wrap-mode: nowrap;&quot;&gt;&lt;font style=&quot;color: light-dark(rgb(92, 106, 114), rgb(211, 198, 170));&quot;&gt;0x0005&lt;/font&gt;&lt;/span&gt;" style="rounded=0;whiteSpace=wrap;html=1;strokeWidth=1;fillColor=none;strokeColor=none;fontColor=light-dark(#5C6A72,#C1C1C1);fillOpacity=50;labelBackgroundColor=none;gradientColor=none;fontFamily=LXGW WenKai Mono;fontSize=17;" parent="1" vertex="1">
          <mxGeometry x="1720" y="1140" width="80" height="30" as="geometry" />
        </mxCell>
        <mxCell id="a9sZFl5pfDBcxFaW0_tR-82" value="&lt;span style=&quot;text-wrap-mode: nowrap;&quot;&gt;&lt;font style=&quot;color: light-dark(rgb(92, 106, 114), rgb(211, 198, 170));&quot;&gt;0x0006&lt;/font&gt;&lt;/span&gt;" style="rounded=0;whiteSpace=wrap;html=1;strokeWidth=1;fillColor=none;strokeColor=none;fontColor=light-dark(#5C6A72,#C1C1C1);fillOpacity=50;labelBackgroundColor=none;gradientColor=none;fontFamily=LXGW WenKai Mono;fontSize=17;" parent="1" vertex="1">
          <mxGeometry x="1720" y="1170" width="80" height="30" as="geometry" />
        </mxCell>
        <mxCell id="a9sZFl5pfDBcxFaW0_tR-83" value="&lt;span style=&quot;text-wrap-mode: nowrap;&quot;&gt;&lt;font style=&quot;color: light-dark(rgb(92, 106, 114), rgb(211, 198, 170));&quot;&gt;0x0007&lt;/font&gt;&lt;/span&gt;" style="rounded=0;whiteSpace=wrap;html=1;strokeWidth=1;fillColor=none;strokeColor=none;fontColor=light-dark(#5C6A72,#C1C1C1);fillOpacity=50;labelBackgroundColor=none;gradientColor=none;fontFamily=LXGW WenKai Mono;fontSize=17;" parent="1" vertex="1">
          <mxGeometry x="1720" y="1200" width="80" height="30" as="geometry" />
        </mxCell>
        <mxCell id="a9sZFl5pfDBcxFaW0_tR-84" value="&lt;span style=&quot;text-wrap-mode: nowrap;&quot;&gt;&lt;font style=&quot;color: light-dark(rgb(92, 106, 114), rgb(211, 198, 170));&quot;&gt;0x0008&lt;/font&gt;&lt;/span&gt;" style="rounded=0;whiteSpace=wrap;html=1;strokeWidth=1;fillColor=light-dark(#A7C080,#A7C080);strokeColor=none;fontColor=light-dark(#5C6A72,#D3C6AA);fillOpacity=50;labelBackgroundColor=none;fontFamily=LXGW WenKai Mono;fontSize=17;" parent="1" vertex="1">
          <mxGeometry x="1720" y="1230" width="80" height="30" as="geometry" />
        </mxCell>
        <mxCell id="a9sZFl5pfDBcxFaW0_tR-85" value="&lt;span style=&quot;text-wrap-mode: nowrap;&quot;&gt;&lt;font style=&quot;color: light-dark(rgb(92, 106, 114), rgb(211, 198, 170));&quot;&gt;0x0009&lt;/font&gt;&lt;/span&gt;" style="rounded=0;whiteSpace=wrap;html=1;strokeWidth=1;fillColor=none;strokeColor=none;fontColor=light-dark(#5C6A72,#C1C1C1);fillOpacity=50;labelBackgroundColor=none;gradientColor=none;fontFamily=LXGW WenKai Mono;fontSize=17;" parent="1" vertex="1">
          <mxGeometry x="1720" y="1260" width="80" height="30" as="geometry" />
        </mxCell>
        <mxCell id="a9sZFl5pfDBcxFaW0_tR-86" value="&lt;span style=&quot;text-wrap-mode: nowrap;&quot;&gt;&lt;font style=&quot;color: light-dark(rgb(92, 106, 114), rgb(211, 198, 170));&quot;&gt;0x000A&lt;/font&gt;&lt;/span&gt;" style="rounded=0;whiteSpace=wrap;html=1;strokeWidth=1;fillColor=none;strokeColor=none;fontColor=light-dark(#5C6A72,#C1C1C1);fillOpacity=50;labelBackgroundColor=none;gradientColor=none;fontFamily=LXGW WenKai Mono;fontSize=17;" parent="1" vertex="1">
          <mxGeometry x="1720" y="1290" width="80" height="30" as="geometry" />
        </mxCell>
        <mxCell id="a9sZFl5pfDBcxFaW0_tR-87" value="&lt;span style=&quot;text-wrap-mode: nowrap;&quot;&gt;&lt;font style=&quot;color: light-dark(rgb(92, 106, 114), rgb(211, 198, 170));&quot;&gt;0x000B&lt;/font&gt;&lt;/span&gt;" style="rounded=0;whiteSpace=wrap;html=1;strokeWidth=1;fillColor=none;strokeColor=none;fontColor=light-dark(#5C6A72,#C1C1C1);fillOpacity=50;labelBackgroundColor=none;gradientColor=none;fontFamily=LXGW WenKai Mono;fontSize=17;" parent="1" vertex="1">
          <mxGeometry x="1720" y="1320" width="80" height="30" as="geometry" />
        </mxCell>
        <mxCell id="a9sZFl5pfDBcxFaW0_tR-88" value="&lt;span style=&quot;text-wrap-mode: nowrap;&quot;&gt;&lt;font style=&quot;color: light-dark(rgb(92, 106, 114), rgb(211, 198, 170));&quot;&gt;0x000C&lt;/font&gt;&lt;/span&gt;" style="rounded=0;whiteSpace=wrap;html=1;strokeWidth=1;fillColor=light-dark(#A7C080,#A7C080);strokeColor=none;fontColor=light-dark(#5C6A72,#D3C6AA);fillOpacity=50;labelBackgroundColor=none;fontFamily=LXGW WenKai Mono;fontSize=17;" parent="1" vertex="1">
          <mxGeometry x="1720" y="1350" width="80" height="30" as="geometry" />
        </mxCell>
        <mxCell id="a9sZFl5pfDBcxFaW0_tR-89" value="&lt;span style=&quot;text-wrap-mode: nowrap;&quot;&gt;&lt;font style=&quot;color: light-dark(rgb(92, 106, 114), rgb(211, 198, 170));&quot;&gt;0x000D&lt;/font&gt;&lt;/span&gt;" style="rounded=0;whiteSpace=wrap;html=1;strokeWidth=1;fillColor=none;strokeColor=none;fontColor=light-dark(#5C6A72,#C1C1C1);fillOpacity=50;labelBackgroundColor=none;gradientColor=none;fontFamily=LXGW WenKai Mono;fontSize=17;" parent="1" vertex="1">
          <mxGeometry x="1720" y="1380" width="80" height="30" as="geometry" />
        </mxCell>
        <mxCell id="a9sZFl5pfDBcxFaW0_tR-90" value="&lt;span style=&quot;text-wrap-mode: nowrap;&quot;&gt;&lt;font style=&quot;color: light-dark(rgb(92, 106, 114), rgb(211, 198, 170));&quot;&gt;0x000E&lt;/font&gt;&lt;/span&gt;" style="rounded=0;whiteSpace=wrap;html=1;strokeWidth=1;fillColor=none;strokeColor=none;fontColor=light-dark(#5C6A72,#C1C1C1);fillOpacity=50;labelBackgroundColor=none;gradientColor=none;fontFamily=LXGW WenKai Mono;fontSize=17;" parent="1" vertex="1">
          <mxGeometry x="1720" y="1410.3" width="80" height="29.7" as="geometry" />
        </mxCell>
        <mxCell id="a9sZFl5pfDBcxFaW0_tR-91" value="&lt;span style=&quot;text-wrap-mode: nowrap;&quot;&gt;&lt;font style=&quot;color: light-dark(rgb(92, 106, 114), rgb(211, 198, 170));&quot;&gt;0x000F&lt;/font&gt;&lt;/span&gt;" style="rounded=0;whiteSpace=wrap;html=1;strokeWidth=1;fillColor=none;strokeColor=none;fontColor=light-dark(#5C6A72,#C1C1C1);fillOpacity=50;labelBackgroundColor=none;gradientColor=none;fontFamily=LXGW WenKai Mono;fontSize=17;" parent="1" vertex="1">
          <mxGeometry x="1720" y="1440" width="80" height="30" as="geometry" />
        </mxCell>
        <mxCell id="a9sZFl5pfDBcxFaW0_tR-92" value="&lt;span style=&quot;text-wrap-mode: nowrap;&quot;&gt;&lt;font style=&quot;color: light-dark(rgb(92, 106, 114), rgb(211, 198, 170));&quot;&gt;按 2^2 = 4 字节对齐&lt;/font&gt;&lt;/span&gt;" style="rounded=0;whiteSpace=wrap;html=1;strokeWidth=1;fillColor=none;strokeColor=none;fontColor=light-dark(#5C6A72,#C1C1C1);fillOpacity=50;labelBackgroundColor=none;gradientColor=none;fontFamily=LXGW WenKai Mono;align=left;fontSize=17;" parent="1" vertex="1">
          <mxGeometry x="2000" y="1270" width="270" height="30" as="geometry" />
        </mxCell>
        <mxCell id="a9sZFl5pfDBcxFaW0_tR-93" value="&lt;span style=&quot;text-wrap-mode: nowrap;&quot;&gt;&lt;font style=&quot;color: light-dark(rgb(92, 106, 114), rgb(211, 198, 170));&quot;&gt;二进制地址最后两位是 0&lt;/font&gt;&lt;/span&gt;" style="rounded=0;whiteSpace=wrap;html=1;strokeWidth=1;fillColor=none;strokeColor=none;fontColor=light-dark(#5C6A72,#C1C1C1);fillOpacity=50;labelBackgroundColor=none;gradientColor=none;fontFamily=LXGW WenKai Mono;align=left;fontSize=17;" parent="1" vertex="1">
          <mxGeometry x="2000" y="1240" width="270" height="30" as="geometry" />
        </mxCell>
        <mxCell id="a9sZFl5pfDBcxFaW0_tR-94" value="&lt;span style=&quot;text-wrap-mode: nowrap;&quot;&gt;&lt;font style=&quot;color: light-dark(rgb(92, 106, 114), rgb(211, 198, 170));&quot;&gt;十六进制地址最后一位是 0、4、8、C&lt;/font&gt;&lt;/span&gt;" style="rounded=0;whiteSpace=wrap;html=1;strokeWidth=1;fillColor=none;strokeColor=none;fontColor=light-dark(#5C6A72,#C1C1C1);fillOpacity=50;labelBackgroundColor=none;gradientColor=none;fontFamily=LXGW WenKai Mono;align=left;fontSize=17;" parent="1" vertex="1">
          <mxGeometry x="2000" y="1300" width="280" height="30" as="geometry" />
        </mxCell>
        <mxCell id="a9sZFl5pfDBcxFaW0_tR-95" value="&lt;font style=&quot;color: light-dark(rgb(92, 106, 114), rgb(211, 198, 170));&quot;&gt;&lt;span class=&quot;token directive property&quot; style=&quot;text-wrap-mode: nowrap; background-color: transparent;&quot;&gt;.section&lt;/span&gt;&lt;span style=&quot;text-wrap-mode: nowrap; background-color: transparent;&quot;&gt;&amp;nbsp;.rodata&lt;/span&gt;&lt;/font&gt;" style="rounded=0;whiteSpace=wrap;html=1;strokeWidth=1;fillColor=none;strokeColor=none;fontColor=light-dark(#5C6A72,#C1C1C1);fillOpacity=50;labelBackgroundColor=none;gradientColor=none;fontFamily=LXGW WenKai Mono;align=left;fontSize=17;" parent="1" vertex="1">
          <mxGeometry x="2010" y="990" width="140" height="30" as="geometry" />
        </mxCell>
        <mxCell id="a9sZFl5pfDBcxFaW0_tR-96" value="&lt;span style=&quot;text-wrap-mode: nowrap;&quot;&gt;&lt;font style=&quot;color: light-dark(rgb(92, 106, 114), rgb(211, 198, 170));&quot;&gt;my_byte:&lt;/font&gt;&lt;/span&gt;" style="rounded=0;whiteSpace=wrap;html=1;strokeWidth=1;fillColor=none;strokeColor=none;fontColor=light-dark(#5C6A72,#C1C1C1);fillOpacity=50;labelBackgroundColor=none;gradientColor=none;fontFamily=LXGW WenKai Mono;align=left;fontSize=17;" parent="1" vertex="1">
          <mxGeometry x="2010" y="1020" width="140" height="30" as="geometry" />
        </mxCell>
        <mxCell id="a9sZFl5pfDBcxFaW0_tR-97" value="&lt;font style=&quot;color: light-dark(rgb(92, 106, 114), rgb(211, 198, 170));&quot;&gt;&lt;span style=&quot;text-wrap-mode: nowrap;&quot; class=&quot;na&quot;&gt;.byte&lt;/span&gt;&lt;span style=&quot;text-wrap-mode: nowrap;&quot;&gt;&amp;nbsp;0x&lt;/span&gt;&lt;span style=&quot;text-wrap-mode: nowrap;&quot; class=&quot;mi&quot;&gt;1&lt;/span&gt;&lt;/font&gt;" style="rounded=0;whiteSpace=wrap;html=1;strokeWidth=1;fillColor=none;strokeColor=none;fontColor=light-dark(#5C6A72,#C1C1C1);fillOpacity=50;labelBackgroundColor=none;gradientColor=none;fontFamily=LXGW WenKai Mono;align=left;fontSize=17;" parent="1" vertex="1">
          <mxGeometry x="2050" y="1050" width="100" height="30" as="geometry" />
        </mxCell>
        <mxCell id="a9sZFl5pfDBcxFaW0_tR-99" value="&lt;span style=&quot;text-wrap-mode: nowrap;&quot;&gt;&lt;font style=&quot;color: light-dark(rgb(92, 106, 114), rgb(211, 198, 170));&quot;&gt;my_word:&lt;/font&gt;&lt;/span&gt;" style="rounded=0;whiteSpace=wrap;html=1;strokeWidth=1;fillColor=none;strokeColor=none;fontColor=light-dark(#5C6A72,#C1C1C1);fillOpacity=50;labelBackgroundColor=none;gradientColor=none;fontFamily=LXGW WenKai Mono;align=left;fontSize=17;" parent="1" vertex="1">
          <mxGeometry x="2010" y="1110" width="110" height="30" as="geometry" />
        </mxCell>
        <mxCell id="a9sZFl5pfDBcxFaW0_tR-100" value="&lt;font style=&quot;color: light-dark(rgb(92, 106, 114), rgb(211, 198, 170));&quot;&gt;&lt;span style=&quot;text-wrap-mode: nowrap;&quot; class=&quot;na&quot;&gt;.word&lt;/span&gt;&lt;span style=&quot;text-wrap-mode: nowrap;&quot;&gt;&amp;nbsp;&lt;/span&gt;&lt;span style=&quot;text-wrap-mode: nowrap;&quot; class=&quot;mi&quot;&gt;0x12345678&lt;/span&gt;&lt;/font&gt;" style="rounded=0;whiteSpace=wrap;html=1;strokeWidth=1;fillColor=none;strokeColor=none;fontColor=light-dark(#5C6A72,#C1C1C1);fillOpacity=50;labelBackgroundColor=none;gradientColor=none;fontFamily=LXGW WenKai Mono;align=left;fontSize=17;" parent="1" vertex="1">
          <mxGeometry x="2050" y="1140" width="170" height="30" as="geometry" />
        </mxCell>
        <mxCell id="a9sZFl5pfDBcxFaW0_tR-101" style="edgeStyle=orthogonalEdgeStyle;rounded=0;orthogonalLoop=1;jettySize=auto;html=1;entryX=1;entryY=0.5;entryDx=0;entryDy=0;endArrow=blockThin;endFill=1;fontColor=#5C6A72;strokeColor=light-dark(#5C6A72,#D3C6AA);fontFamily=LXGW WenKai Mono;fontSize=17;fillColor=none;" parent="1" source="a9sZFl5pfDBcxFaW0_tR-102" target="a9sZFl5pfDBcxFaW0_tR-104" edge="1">
          <mxGeometry relative="1" as="geometry" />
        </mxCell>
        <mxCell id="a9sZFl5pfDBcxFaW0_tR-102" value="&lt;font style=&quot;color: light-dark(rgb(92, 106, 114), rgb(211, 198, 170));&quot;&gt;寄存器&lt;/font&gt;" style="rounded=0;whiteSpace=wrap;html=1;strokeWidth=1;fillColor=none;strokeColor=light-dark(#5C6A72,#D3C6AA);fontColor=light-dark(#5C6A72,#D3C6AA);fillOpacity=50;labelBackgroundColor=none;fontFamily=LXGW WenKai Mono;fontSize=17;" parent="1" vertex="1">
          <mxGeometry x="1860" y="1725.3" width="120" height="30" as="geometry" />
        </mxCell>
        <mxCell id="a9sZFl5pfDBcxFaW0_tR-103" value="" style="endArrow=blockThin;html=1;rounded=0;entryX=1;entryY=0.5;entryDx=0;entryDy=0;endFill=1;fontColor=#5C6A72;strokeColor=light-dark(#5C6A72,#D3C6AA);fontFamily=LXGW WenKai Mono;fontSize=17;fillColor=none;" parent="1" target="a9sZFl5pfDBcxFaW0_tR-102" edge="1">
          <mxGeometry width="50" height="50" relative="1" as="geometry">
            <mxPoint x="2020" y="1740" as="sourcePoint" />
            <mxPoint x="1800" y="1705.3000000000002" as="targetPoint" />
          </mxGeometry>
        </mxCell>
        <mxCell id="a9sZFl5pfDBcxFaW0_tR-104" value="&lt;font style=&quot;color: light-dark(rgb(92, 106, 114), rgb(211, 198, 170));&quot;&gt;C&lt;/font&gt;" style="rounded=0;whiteSpace=wrap;html=1;strokeWidth=1;fillColor=none;strokeColor=light-dark(#5C6A72,#D3C6AA);fontColor=light-dark(#5C6A72,#D3C6AA);fillOpacity=50;labelBackgroundColor=none;fontFamily=LXGW WenKai Mono;fontSize=17;" parent="1" vertex="1">
          <mxGeometry x="1810" y="1725.3" width="30" height="29.7" as="geometry" />
        </mxCell>
        <mxCell id="a9sZFl5pfDBcxFaW0_tR-105" style="edgeStyle=orthogonalEdgeStyle;rounded=0;orthogonalLoop=1;jettySize=auto;html=1;entryX=0;entryY=0.5;entryDx=0;entryDy=0;endArrow=blockThin;endFill=1;fontColor=#5C6A72;strokeColor=light-dark(#5C6A72,#D3C6AA);fontFamily=LXGW WenKai Mono;fontSize=17;fillColor=none;" parent="1" source="a9sZFl5pfDBcxFaW0_tR-106" target="a9sZFl5pfDBcxFaW0_tR-107" edge="1">
          <mxGeometry relative="1" as="geometry">
            <Array as="points">
              <mxPoint x="1960" y="1660" />
              <mxPoint x="1960" y="1660" />
            </Array>
          </mxGeometry>
        </mxCell>
        <mxCell id="a9sZFl5pfDBcxFaW0_tR-106" value="&lt;font style=&quot;color: light-dark(rgb(92, 106, 114), rgb(211, 198, 170));&quot;&gt;寄存器&lt;/font&gt;" style="rounded=0;whiteSpace=wrap;html=1;strokeWidth=1;fillColor=none;strokeColor=light-dark(#5C6A72,#D3C6AA);fontColor=light-dark(#5C6A72,#D3C6AA);fillOpacity=50;labelBackgroundColor=none;fontFamily=LXGW WenKai Mono;fontSize=17;" parent="1" vertex="1">
          <mxGeometry x="1860" y="1645" width="120" height="30" as="geometry" />
        </mxCell>
        <mxCell id="a9sZFl5pfDBcxFaW0_tR-107" value="&lt;font style=&quot;color: light-dark(rgb(92, 106, 114), rgb(211, 198, 170));&quot;&gt;C&lt;/font&gt;" style="rounded=0;whiteSpace=wrap;html=1;strokeWidth=1;fillColor=none;strokeColor=light-dark(#5C6A72,#D3C6AA);fontColor=light-dark(#5C6A72,#D3C6AA);fillOpacity=50;labelBackgroundColor=none;fontFamily=LXGW WenKai Mono;fontSize=17;" parent="1" vertex="1">
          <mxGeometry x="2020" y="1645" width="30" height="30" as="geometry" />
        </mxCell>
        <mxCell id="a9sZFl5pfDBcxFaW0_tR-108" value="" style="endArrow=blockThin;html=1;rounded=0;entryX=0;entryY=0.5;entryDx=0;entryDy=0;endFill=1;fontColor=#5C6A72;strokeColor=light-dark(#5C6A72,#D3C6AA);fontFamily=LXGW WenKai Mono;fontSize=17;fillColor=none;" parent="1" target="a9sZFl5pfDBcxFaW0_tR-106" edge="1">
          <mxGeometry width="50" height="50" relative="1" as="geometry">
            <mxPoint x="1830" y="1660" as="sourcePoint" />
            <mxPoint x="1880" y="1560" as="targetPoint" />
          </mxGeometry>
        </mxCell>
        <mxCell id="a9sZFl5pfDBcxFaW0_tR-109" style="edgeStyle=orthogonalEdgeStyle;rounded=0;orthogonalLoop=1;jettySize=auto;html=1;entryX=0;entryY=0.5;entryDx=0;entryDy=0;endArrow=blockThin;endFill=1;fontColor=#5C6A72;strokeColor=light-dark(#5C6A72,#D3C6AA);fontFamily=LXGW WenKai Mono;fontSize=17;fillColor=none;" parent="1" source="a9sZFl5pfDBcxFaW0_tR-110" target="a9sZFl5pfDBcxFaW0_tR-111" edge="1">
          <mxGeometry relative="1" as="geometry" />
        </mxCell>
        <mxCell id="a9sZFl5pfDBcxFaW0_tR-110" value="&lt;font style=&quot;color: light-dark(rgb(92, 106, 114), rgb(211, 198, 170));&quot;&gt;寄存器&lt;/font&gt;" style="rounded=0;whiteSpace=wrap;html=1;strokeWidth=1;fillColor=none;strokeColor=light-dark(#5C6A72,#D3C6AA);fontColor=light-dark(#5C6A72,#D3C6AA);fillOpacity=50;labelBackgroundColor=none;fontFamily=LXGW WenKai Mono;fontSize=17;" parent="1" vertex="1">
          <mxGeometry x="1860" y="1575" width="120" height="30" as="geometry" />
        </mxCell>
        <mxCell id="a9sZFl5pfDBcxFaW0_tR-111" value="&lt;font style=&quot;color: light-dark(rgb(92, 106, 114), rgb(211, 198, 170));&quot;&gt;C&lt;/font&gt;" style="rounded=0;whiteSpace=wrap;html=1;strokeWidth=1;fillColor=none;strokeColor=light-dark(#5C6A72,#D3C6AA);fontColor=light-dark(#5C6A72,#D3C6AA);fillOpacity=50;labelBackgroundColor=none;fontFamily=LXGW WenKai Mono;fontSize=17;" parent="1" vertex="1">
          <mxGeometry x="2020" y="1575" width="30" height="30" as="geometry" />
        </mxCell>
        <mxCell id="a9sZFl5pfDBcxFaW0_tR-112" value="" style="endArrow=none;html=1;rounded=0;exitX=0.126;exitY=1.015;exitDx=0;exitDy=0;exitPerimeter=0;entryX=0.126;entryY=0.025;entryDx=0;entryDy=0;entryPerimeter=0;fontColor=#5C6A72;strokeColor=light-dark(#5C6A72,#D3C6AA);fontFamily=LXGW WenKai Mono;fontSize=17;fillColor=none;" parent="1" edge="1">
          <mxGeometry width="50" height="50" relative="1" as="geometry">
            <mxPoint x="1870" y="1605" as="sourcePoint" />
            <mxPoint x="1870" y="1575.3" as="targetPoint" />
          </mxGeometry>
        </mxCell>
        <mxCell id="a9sZFl5pfDBcxFaW0_tR-113" value="" style="shape=partialRectangle;whiteSpace=wrap;html=1;bottom=1;right=1;left=1;top=0;fillColor=none;routingCenterX=-0.5;direction=west;fontColor=light-dark(#5C6A72,#D3C6AA);strokeColor=light-dark(#5C6A72,#D3C6AA);fontFamily=LXGW WenKai Mono;fontSize=17;" parent="1" vertex="1">
          <mxGeometry x="1830" y="1560" width="35" height="15" as="geometry" />
        </mxCell>
        <mxCell id="a9sZFl5pfDBcxFaW0_tR-114" value="" style="endArrow=none;html=1;rounded=0;entryX=1;entryY=0;entryDx=0;entryDy=0;fontColor=#5C6A72;strokeColor=light-dark(#5C6A72,#D3C6AA);fontFamily=LXGW WenKai Mono;fontSize=17;fillColor=none;" parent="1" target="a9sZFl5pfDBcxFaW0_tR-113" edge="1">
          <mxGeometry width="50" height="50" relative="1" as="geometry">
            <mxPoint x="1840" y="1590" as="sourcePoint" />
            <mxPoint x="1890" y="1565" as="targetPoint" />
            <Array as="points">
              <mxPoint x="1830" y="1590" />
            </Array>
          </mxGeometry>
        </mxCell>
        <mxCell id="a9sZFl5pfDBcxFaW0_tR-115" value="" style="endArrow=blockThin;html=1;rounded=0;entryX=0;entryY=0.5;entryDx=0;entryDy=0;endFill=1;fontColor=#5C6A72;strokeColor=light-dark(#5C6A72,#D3C6AA);fontFamily=LXGW WenKai Mono;fontSize=17;fillColor=none;" parent="1" target="a9sZFl5pfDBcxFaW0_tR-110" edge="1">
          <mxGeometry width="50" height="50" relative="1" as="geometry">
            <mxPoint x="1840" y="1590" as="sourcePoint" />
            <mxPoint x="1890" y="1565" as="targetPoint" />
          </mxGeometry>
        </mxCell>
        <mxCell id="a9sZFl5pfDBcxFaW0_tR-116" style="edgeStyle=orthogonalEdgeStyle;rounded=0;orthogonalLoop=1;jettySize=auto;html=1;entryX=0;entryY=0.5;entryDx=0;entryDy=0;endArrow=blockThin;endFill=1;fontColor=#5C6A72;strokeColor=light-dark(#5C6A72,#D3C6AA);fontFamily=LXGW WenKai Mono;fontSize=17;fillColor=none;" parent="1" source="a9sZFl5pfDBcxFaW0_tR-117" target="a9sZFl5pfDBcxFaW0_tR-118" edge="1">
          <mxGeometry relative="1" as="geometry" />
        </mxCell>
        <mxCell id="a9sZFl5pfDBcxFaW0_tR-117" value="&lt;font style=&quot;color: light-dark(rgb(92, 106, 114), rgb(211, 198, 170));&quot;&gt;寄存器&lt;/font&gt;" style="rounded=0;whiteSpace=wrap;html=1;strokeWidth=1;fillColor=none;strokeColor=light-dark(#5C6A72,#D3C6AA);fontColor=light-dark(#5C6A72,#D3C6AA);fillOpacity=50;labelBackgroundColor=none;fontFamily=LXGW WenKai Mono;fontSize=17;" parent="1" vertex="1">
          <mxGeometry x="2240" y="1575" width="120" height="30" as="geometry" />
        </mxCell>
        <mxCell id="a9sZFl5pfDBcxFaW0_tR-118" value="&lt;font style=&quot;color: light-dark(rgb(92, 106, 114), rgb(211, 198, 170));&quot;&gt;C&lt;/font&gt;" style="rounded=0;whiteSpace=wrap;html=1;strokeWidth=1;fillColor=none;strokeColor=light-dark(#5C6A72,#D3C6AA);fontColor=light-dark(#5C6A72,#D3C6AA);fillOpacity=50;labelBackgroundColor=none;fontFamily=LXGW WenKai Mono;fontSize=17;" parent="1" vertex="1">
          <mxGeometry x="2400" y="1575" width="30" height="30" as="geometry" />
        </mxCell>
        <mxCell id="a9sZFl5pfDBcxFaW0_tR-119" value="" style="shape=partialRectangle;whiteSpace=wrap;html=1;bottom=1;right=1;left=1;top=0;fillColor=none;routingCenterX=-0.5;direction=west;fontColor=light-dark(#5C6A72,#D3C6AA);strokeColor=light-dark(#5C6A72,#D3C6AA);fontFamily=LXGW WenKai Mono;fontSize=17;" parent="1" vertex="1">
          <mxGeometry x="2220" y="1560" width="80" height="15" as="geometry" />
        </mxCell>
        <mxCell id="a9sZFl5pfDBcxFaW0_tR-121" value="" style="endArrow=blockThin;html=1;rounded=0;entryX=0;entryY=0.5;entryDx=0;entryDy=0;endFill=1;fontColor=#5C6A72;strokeColor=light-dark(#5C6A72,#D3C6AA);fontFamily=LXGW WenKai Mono;fontSize=17;exitX=1;exitY=0;exitDx=0;exitDy=0;fillColor=none;" parent="1" source="a9sZFl5pfDBcxFaW0_tR-119" target="a9sZFl5pfDBcxFaW0_tR-117" edge="1">
          <mxGeometry width="50" height="50" relative="1" as="geometry">
            <mxPoint x="2220" y="1590" as="sourcePoint" />
            <mxPoint x="2270" y="1575" as="targetPoint" />
            <Array as="points">
              <mxPoint x="2220" y="1590" />
            </Array>
          </mxGeometry>
        </mxCell>
        <mxCell id="a9sZFl5pfDBcxFaW0_tR-122" style="edgeStyle=orthogonalEdgeStyle;rounded=0;orthogonalLoop=1;jettySize=auto;html=1;entryX=0;entryY=0.5;entryDx=0;entryDy=0;endArrow=blockThin;endFill=1;fontColor=#5C6A72;strokeColor=light-dark(#5C6A72,#D3C6AA);fontFamily=LXGW WenKai Mono;fontSize=17;exitX=1;exitY=0.5;exitDx=0;exitDy=0;fillColor=none;" parent="1" source="a9sZFl5pfDBcxFaW0_tR-123" target="a9sZFl5pfDBcxFaW0_tR-124" edge="1">
          <mxGeometry relative="1" as="geometry">
            <mxPoint x="2370" y="1660.3" as="sourcePoint" />
          </mxGeometry>
        </mxCell>
        <mxCell id="a9sZFl5pfDBcxFaW0_tR-123" value="&lt;font style=&quot;color: light-dark(rgb(92, 106, 114), rgb(211, 198, 170));&quot;&gt;寄存器&lt;/font&gt;" style="rounded=0;whiteSpace=wrap;html=1;strokeWidth=1;fillColor=none;strokeColor=light-dark(#5C6A72,#D3C6AA);fontColor=light-dark(#5C6A72,#D3C6AA);fillOpacity=50;labelBackgroundColor=none;fontFamily=LXGW WenKai Mono;fontSize=17;" parent="1" vertex="1">
          <mxGeometry x="2240" y="1645.3" width="120" height="30" as="geometry" />
        </mxCell>
        <mxCell id="a9sZFl5pfDBcxFaW0_tR-124" value="&lt;font style=&quot;color: light-dark(rgb(92, 106, 114), rgb(211, 198, 170));&quot;&gt;C&lt;/font&gt;" style="rounded=0;whiteSpace=wrap;html=1;strokeWidth=1;fillColor=none;strokeColor=light-dark(#5C6A72,#D3C6AA);fontColor=light-dark(#5C6A72,#D3C6AA);fillOpacity=50;labelBackgroundColor=none;fontFamily=LXGW WenKai Mono;fontSize=17;" parent="1" vertex="1">
          <mxGeometry x="2400" y="1645.3" width="30" height="30.3" as="geometry" />
        </mxCell>
        <mxCell id="a9sZFl5pfDBcxFaW0_tR-125" value="" style="shape=partialRectangle;whiteSpace=wrap;html=1;bottom=1;right=1;left=1;top=0;fillColor=none;routingCenterX=-0.5;direction=west;fontColor=light-dark(#5C6A72,#D3C6AA);strokeColor=light-dark(#5C6A72,#D3C6AA);fontFamily=LXGW WenKai Mono;fontSize=17;" parent="1" vertex="1">
          <mxGeometry x="2220" y="1630" width="80" height="15.3" as="geometry" />
        </mxCell>
        <mxCell id="a9sZFl5pfDBcxFaW0_tR-127" value="" style="endArrow=blockThin;html=1;rounded=0;entryX=0;entryY=0.5;entryDx=0;entryDy=0;endFill=1;fontColor=#5C6A72;strokeColor=light-dark(#5C6A72,#D3C6AA);fontFamily=LXGW WenKai Mono;fontSize=17;exitX=1;exitY=0;exitDx=0;exitDy=0;fillColor=none;" parent="1" source="a9sZFl5pfDBcxFaW0_tR-125" target="a9sZFl5pfDBcxFaW0_tR-123" edge="1">
          <mxGeometry width="50" height="50" relative="1" as="geometry">
            <mxPoint x="2220" y="1650" as="sourcePoint" />
            <mxPoint x="2270" y="1640" as="targetPoint" />
            <Array as="points">
              <mxPoint x="2220" y="1660" />
            </Array>
          </mxGeometry>
        </mxCell>
        <mxCell id="a9sZFl5pfDBcxFaW0_tR-128" value="&lt;span style=&quot;text-wrap-mode: nowrap;&quot;&gt;&lt;font style=&quot;color: light-dark(rgb(92, 106, 114), rgb(211, 198, 170));&quot;&gt;ASR&lt;/font&gt;&lt;/span&gt;" style="rounded=0;whiteSpace=wrap;html=1;strokeWidth=1;fillColor=none;strokeColor=none;fontColor=light-dark(#5C6A72,#D3C6AA);fillOpacity=50;labelBackgroundColor=none;fontFamily=LXGW WenKai Mono;align=left;fontSize=17;" parent="1" vertex="1">
          <mxGeometry x="1760" y="1565" width="40" height="30" as="geometry" />
        </mxCell>
        <mxCell id="a9sZFl5pfDBcxFaW0_tR-129" value="&lt;span style=&quot;text-wrap-mode: nowrap;&quot;&gt;&lt;font style=&quot;color: light-dark(rgb(92, 106, 114), rgb(211, 198, 170));&quot;&gt;LSR&lt;/font&gt;&lt;/span&gt;" style="rounded=0;whiteSpace=wrap;html=1;strokeWidth=1;fillColor=none;strokeColor=none;fontColor=light-dark(#5C6A72,#D3C6AA);fillOpacity=50;labelBackgroundColor=none;fontFamily=LXGW WenKai Mono;align=left;fontSize=17;" parent="1" vertex="1">
          <mxGeometry x="1760" y="1645" width="40" height="30" as="geometry" />
        </mxCell>
        <mxCell id="a9sZFl5pfDBcxFaW0_tR-130" value="&lt;span style=&quot;text-wrap-mode: nowrap;&quot;&gt;&lt;font style=&quot;color: light-dark(rgb(92, 106, 114), rgb(211, 198, 170));&quot;&gt;LSL&lt;/font&gt;&lt;/span&gt;" style="rounded=0;whiteSpace=wrap;html=1;strokeWidth=1;fillColor=none;strokeColor=none;fontColor=light-dark(#5C6A72,#D3C6AA);fillOpacity=50;labelBackgroundColor=none;fontFamily=LXGW WenKai Mono;align=left;fontSize=17;" parent="1" vertex="1">
          <mxGeometry x="1760" y="1725.3" width="40" height="29.7" as="geometry" />
        </mxCell>
        <mxCell id="a9sZFl5pfDBcxFaW0_tR-131" value="&lt;span style=&quot;text-wrap-mode: nowrap;&quot;&gt;&lt;font style=&quot;color: light-dark(rgb(92, 106, 114), rgb(211, 198, 170));&quot;&gt;ROR&lt;/font&gt;&lt;/span&gt;" style="rounded=0;whiteSpace=wrap;html=1;strokeWidth=1;fillColor=none;strokeColor=none;fontColor=light-dark(#5C6A72,#D3C6AA);fillOpacity=50;labelBackgroundColor=none;fontFamily=LXGW WenKai Mono;align=left;fontSize=17;" parent="1" vertex="1">
          <mxGeometry x="2160" y="1575" width="40" height="30" as="geometry" />
        </mxCell>
        <mxCell id="a9sZFl5pfDBcxFaW0_tR-132" value="&lt;span style=&quot;text-wrap-mode: nowrap;&quot;&gt;&lt;font style=&quot;color: light-dark(rgb(92, 106, 114), rgb(211, 198, 170));&quot;&gt;RRX&lt;/font&gt;&lt;/span&gt;" style="rounded=0;whiteSpace=wrap;html=1;strokeWidth=1;fillColor=none;strokeColor=none;fontColor=light-dark(#5C6A72,#D3C6AA);fillOpacity=50;labelBackgroundColor=none;fontFamily=LXGW WenKai Mono;align=left;fontSize=17;" parent="1" vertex="1">
          <mxGeometry x="2160" y="1645" width="50" height="27.3" as="geometry" />
        </mxCell>
        <mxCell id="a9sZFl5pfDBcxFaW0_tR-133" value="&lt;span style=&quot;text-wrap-mode: nowrap;&quot;&gt;&lt;font style=&quot;color: light-dark(rgb(92, 106, 114), rgb(211, 198, 170));&quot;&gt;0&lt;/font&gt;&lt;/span&gt;" style="rounded=0;whiteSpace=wrap;html=1;strokeWidth=1;fillColor=none;strokeColor=none;fontColor=light-dark(#5C6A72,#D3C6AA);fillOpacity=50;labelBackgroundColor=none;fontFamily=LXGW WenKai Mono;align=center;fontSize=17;" parent="1" vertex="1">
          <mxGeometry x="1815" y="1650" width="15" height="20" as="geometry" />
        </mxCell>
        <mxCell id="a9sZFl5pfDBcxFaW0_tR-134" value="&lt;span style=&quot;text-wrap-mode: nowrap;&quot;&gt;&lt;font style=&quot;color: light-dark(rgb(92, 106, 114), rgb(211, 198, 170));&quot;&gt;0&lt;/font&gt;&lt;/span&gt;" style="rounded=0;whiteSpace=wrap;html=1;strokeWidth=1;fillColor=none;strokeColor=none;fontColor=light-dark(#5C6A72,#D3C6AA);fillOpacity=50;labelBackgroundColor=none;fontFamily=LXGW WenKai Mono;align=center;fontSize=17;" parent="1" vertex="1">
          <mxGeometry x="2026.25" y="1725.45" width="17.5" height="29.7" as="geometry" />
        </mxCell>
        <mxCell id="a9sZFl5pfDBcxFaW0_tR-138" value="" style="rounded=0;whiteSpace=wrap;html=1;strokeWidth=1;fillColor=none;strokeColor=light-dark(#5C6A72,#D3C6AA);fontColor=light-dark(#5C6A72,#D3C6AA);fillOpacity=50;labelBackgroundColor=none;fontFamily=LXGW WenKai Mono Medium;" parent="1" vertex="1">
          <mxGeometry x="1760" y="1860" width="60" height="30" as="geometry" />
        </mxCell>
        <mxCell id="a9sZFl5pfDBcxFaW0_tR-139" value="" style="rounded=0;whiteSpace=wrap;html=1;strokeWidth=1;fillColor=none;strokeColor=light-dark(#5C6A72,#D3C6AA);fontColor=light-dark(#5C6A72,#D3C6AA);fillOpacity=50;labelBackgroundColor=none;fontFamily=LXGW WenKai Mono Medium;" parent="1" vertex="1">
          <mxGeometry x="1850" y="1860" width="60" height="30" as="geometry" />
        </mxCell>
        <mxCell id="a9sZFl5pfDBcxFaW0_tR-140" value="" style="rounded=0;whiteSpace=wrap;html=1;strokeWidth=1;fillColor=none;strokeColor=light-dark(#5C6A72,#D3C6AA);fontColor=light-dark(#5C6A72,#D3C6AA);fillOpacity=50;labelBackgroundColor=none;fontFamily=LXGW WenKai Mono Medium;" parent="1" vertex="1">
          <mxGeometry x="1940" y="1860" width="60" height="30" as="geometry" />
        </mxCell>
        <mxCell id="a9sZFl5pfDBcxFaW0_tR-141" value="" style="rounded=0;whiteSpace=wrap;html=1;strokeWidth=1;fillColor=none;strokeColor=light-dark(#5C6A72,#D3C6AA);fontColor=light-dark(#5C6A72,#D3C6AA);fillOpacity=50;labelBackgroundColor=none;fontFamily=LXGW WenKai Mono Medium;" parent="1" vertex="1">
          <mxGeometry x="2030" y="1860" width="60" height="30" as="geometry" />
        </mxCell>
        <mxCell id="a9sZFl5pfDBcxFaW0_tR-142" value="" style="rounded=0;whiteSpace=wrap;html=1;strokeWidth=1;fillColor=none;strokeColor=light-dark(#5C6A72,#D3C6AA);fontColor=light-dark(#5C6A72,#D3C6AA);fillOpacity=50;labelBackgroundColor=none;fontFamily=LXGW WenKai Mono Medium;" parent="1" vertex="1">
          <mxGeometry x="1760" y="1930" width="60" height="30" as="geometry" />
        </mxCell>
        <mxCell id="a9sZFl5pfDBcxFaW0_tR-143" value="" style="rounded=0;whiteSpace=wrap;html=1;strokeWidth=1;fillColor=none;strokeColor=light-dark(#5C6A72,#D3C6AA);fontColor=light-dark(#5C6A72,#D3C6AA);fillOpacity=50;labelBackgroundColor=none;fontFamily=LXGW WenKai Mono Medium;" parent="1" vertex="1">
          <mxGeometry x="1850" y="1930" width="60" height="30" as="geometry" />
        </mxCell>
        <mxCell id="a9sZFl5pfDBcxFaW0_tR-144" value="" style="rounded=0;whiteSpace=wrap;html=1;strokeWidth=1;fillColor=none;strokeColor=light-dark(#5C6A72,#D3C6AA);fontColor=light-dark(#5C6A72,#D3C6AA);fillOpacity=50;labelBackgroundColor=none;fontFamily=LXGW WenKai Mono Medium;" parent="1" vertex="1">
          <mxGeometry x="1940" y="1930" width="60" height="30" as="geometry" />
        </mxCell>
        <mxCell id="a9sZFl5pfDBcxFaW0_tR-145" value="" style="rounded=0;whiteSpace=wrap;html=1;strokeWidth=1;fillColor=none;strokeColor=light-dark(#5C6A72,#D3C6AA);fontColor=light-dark(#5C6A72,#D3C6AA);fillOpacity=50;labelBackgroundColor=none;fontFamily=LXGW WenKai Mono Medium;" parent="1" vertex="1">
          <mxGeometry x="2030" y="1930" width="60" height="30" as="geometry" />
        </mxCell>
        <mxCell id="a9sZFl5pfDBcxFaW0_tR-146" value="" style="endArrow=blockThin;html=1;rounded=0;exitX=0.5;exitY=1;exitDx=0;exitDy=0;endFill=1;entryX=0.5;entryY=0;entryDx=0;entryDy=0;strokeColor=light-dark(#5C6A72,#D3C6AA);fontFamily=LXGW WenKai Mono Medium;fontColor=#5C6A72;fillColor=none;" parent="1" source="a9sZFl5pfDBcxFaW0_tR-138" target="a9sZFl5pfDBcxFaW0_tR-145" edge="1">
          <mxGeometry width="50" height="50" relative="1" as="geometry">
            <mxPoint x="1840" y="1960" as="sourcePoint" />
            <mxPoint x="1900" y="1910" as="targetPoint" />
          </mxGeometry>
        </mxCell>
        <mxCell id="a9sZFl5pfDBcxFaW0_tR-147" value="" style="endArrow=blockThin;html=1;rounded=0;exitX=0.5;exitY=1;exitDx=0;exitDy=0;endFill=1;entryX=0.5;entryY=0;entryDx=0;entryDy=0;strokeColor=light-dark(#5C6A72,#D3C6AA);fontFamily=LXGW WenKai Mono Medium;fontColor=#5C6A72;fillColor=none;" parent="1" source="a9sZFl5pfDBcxFaW0_tR-139" target="a9sZFl5pfDBcxFaW0_tR-144" edge="1">
          <mxGeometry width="50" height="50" relative="1" as="geometry">
            <mxPoint x="1810" y="1900" as="sourcePoint" />
            <mxPoint x="1990" y="1930" as="targetPoint" />
          </mxGeometry>
        </mxCell>
        <mxCell id="a9sZFl5pfDBcxFaW0_tR-148" value="" style="endArrow=blockThin;html=1;rounded=0;exitX=0.5;exitY=1;exitDx=0;exitDy=0;endFill=1;entryX=0.5;entryY=0;entryDx=0;entryDy=0;strokeColor=light-dark(#5C6A72,#D3C6AA);fontFamily=LXGW WenKai Mono Medium;fontColor=#5C6A72;fillColor=none;" parent="1" source="a9sZFl5pfDBcxFaW0_tR-140" target="a9sZFl5pfDBcxFaW0_tR-143" edge="1">
          <mxGeometry width="50" height="50" relative="1" as="geometry">
            <mxPoint x="1870" y="1900" as="sourcePoint" />
            <mxPoint x="1930" y="1930" as="targetPoint" />
          </mxGeometry>
        </mxCell>
        <mxCell id="a9sZFl5pfDBcxFaW0_tR-149" value="" style="endArrow=blockThin;html=1;rounded=0;exitX=0.5;exitY=1;exitDx=0;exitDy=0;endFill=1;entryX=0.5;entryY=0;entryDx=0;entryDy=0;strokeColor=light-dark(#5C6A72,#D3C6AA);fontFamily=LXGW WenKai Mono Medium;fontColor=#5C6A72;fillColor=none;" parent="1" source="a9sZFl5pfDBcxFaW0_tR-141" target="a9sZFl5pfDBcxFaW0_tR-142" edge="1">
          <mxGeometry width="50" height="50" relative="1" as="geometry">
            <mxPoint x="1930" y="1900" as="sourcePoint" />
            <mxPoint x="1870" y="1930" as="targetPoint" />
          </mxGeometry>
        </mxCell>
        <mxCell id="a9sZFl5pfDBcxFaW0_tR-171" value="" style="endArrow=blockThin;html=1;rounded=0;exitX=0;exitY=0.75;exitDx=0;exitDy=0;endFill=1;strokeColor=light-dark(#5C6A72,#D3C6AA);startSize=6;strokeWidth=1;fontFamily=LXGW WenKai Mono;fontColor=#5C6A72;fontSize=17;entryX=0;entryY=0.75;entryDx=0;entryDy=0;fillColor=none;" parent="1" source="a9sZFl5pfDBcxFaW0_tR-195" target="a9sZFl5pfDBcxFaW0_tR-194" edge="1">
          <mxGeometry width="50" height="50" relative="1" as="geometry">
            <mxPoint x="2770" y="1760" as="sourcePoint" />
            <mxPoint x="2580" y="1980" as="targetPoint" />
          </mxGeometry>
        </mxCell>
        <mxCell id="a9sZFl5pfDBcxFaW0_tR-172" value="&lt;span style=&quot;text-wrap-mode: nowrap;&quot;&gt;&lt;font style=&quot;color: light-dark(rgb(92, 106, 114), rgb(211, 198, 170));&quot;&gt;REV&lt;/font&gt;&lt;/span&gt;" style="rounded=0;whiteSpace=wrap;html=1;strokeWidth=1;fillColor=none;strokeColor=none;fontColor=light-dark(#5C6A72,#D3C6AA);fillOpacity=50;labelBackgroundColor=none;fontFamily=LXGW WenKai Mono;align=center;fontSize=17;" parent="1" vertex="1">
          <mxGeometry x="1905" y="1820" width="40" height="30" as="geometry" />
        </mxCell>
        <mxCell id="a9sZFl5pfDBcxFaW0_tR-176" value="" style="rounded=0;whiteSpace=wrap;html=1;strokeWidth=1;fillColor=none;strokeColor=light-dark(#5C6A72,#D3C6AA);fontColor=light-dark(#5C6A72,#D3C6AA);fillOpacity=50;labelBackgroundColor=none;fontFamily=LXGW WenKai Mono Medium;" parent="1" vertex="1">
          <mxGeometry x="2160" y="1860" width="60" height="30" as="geometry" />
        </mxCell>
        <mxCell id="a9sZFl5pfDBcxFaW0_tR-177" value="" style="rounded=0;whiteSpace=wrap;html=1;strokeWidth=1;fillColor=none;strokeColor=light-dark(#5C6A72,#D3C6AA);fontColor=light-dark(#5C6A72,#D3C6AA);fillOpacity=50;labelBackgroundColor=none;fontFamily=LXGW WenKai Mono Medium;" parent="1" vertex="1">
          <mxGeometry x="2250" y="1860" width="60" height="30" as="geometry" />
        </mxCell>
        <mxCell id="a9sZFl5pfDBcxFaW0_tR-178" value="" style="rounded=0;whiteSpace=wrap;html=1;strokeWidth=1;fillColor=none;strokeColor=light-dark(#5C6A72,#D3C6AA);fontColor=light-dark(#5C6A72,#D3C6AA);fillOpacity=50;labelBackgroundColor=none;fontFamily=LXGW WenKai Mono Medium;" parent="1" vertex="1">
          <mxGeometry x="2340" y="1860" width="60" height="30" as="geometry" />
        </mxCell>
        <mxCell id="a9sZFl5pfDBcxFaW0_tR-179" value="" style="rounded=0;whiteSpace=wrap;html=1;strokeWidth=1;fillColor=none;strokeColor=light-dark(#5C6A72,#D3C6AA);fontColor=light-dark(#5C6A72,#D3C6AA);fillOpacity=50;labelBackgroundColor=none;fontFamily=LXGW WenKai Mono Medium;" parent="1" vertex="1">
          <mxGeometry x="2430" y="1860" width="60" height="30" as="geometry" />
        </mxCell>
        <mxCell id="a9sZFl5pfDBcxFaW0_tR-180" value="" style="rounded=0;whiteSpace=wrap;html=1;strokeWidth=1;fillColor=none;strokeColor=light-dark(#5C6A72,#D3C6AA);fontColor=light-dark(#5C6A72,#D3C6AA);fillOpacity=50;labelBackgroundColor=none;fontFamily=LXGW WenKai Mono Medium;" parent="1" vertex="1">
          <mxGeometry x="2160" y="1930" width="60" height="30" as="geometry" />
        </mxCell>
        <mxCell id="a9sZFl5pfDBcxFaW0_tR-181" value="" style="rounded=0;whiteSpace=wrap;html=1;strokeWidth=1;fillColor=none;strokeColor=light-dark(#5C6A72,#D3C6AA);fontColor=light-dark(#5C6A72,#D3C6AA);fillOpacity=50;labelBackgroundColor=none;fontFamily=LXGW WenKai Mono Medium;" parent="1" vertex="1">
          <mxGeometry x="2250" y="1930" width="60" height="30" as="geometry" />
        </mxCell>
        <mxCell id="a9sZFl5pfDBcxFaW0_tR-182" value="" style="rounded=0;whiteSpace=wrap;html=1;strokeWidth=1;fillColor=none;strokeColor=light-dark(#5C6A72,#D3C6AA);fontColor=light-dark(#5C6A72,#D3C6AA);fillOpacity=50;labelBackgroundColor=none;fontFamily=LXGW WenKai Mono Medium;" parent="1" vertex="1">
          <mxGeometry x="2340" y="1930" width="60" height="30" as="geometry" />
        </mxCell>
        <mxCell id="a9sZFl5pfDBcxFaW0_tR-183" value="" style="rounded=0;whiteSpace=wrap;html=1;strokeWidth=1;fillColor=none;strokeColor=light-dark(#5C6A72,#D3C6AA);fontColor=light-dark(#5C6A72,#D3C6AA);fillOpacity=50;labelBackgroundColor=none;fontFamily=LXGW WenKai Mono Medium;" parent="1" vertex="1">
          <mxGeometry x="2430" y="1930" width="60" height="30" as="geometry" />
        </mxCell>
        <mxCell id="a9sZFl5pfDBcxFaW0_tR-184" value="" style="endArrow=blockThin;html=1;rounded=0;exitX=0.5;exitY=1;exitDx=0;exitDy=0;endFill=1;strokeColor=light-dark(#5C6A72,#D3C6AA);fontFamily=LXGW WenKai Mono Medium;fontColor=#5C6A72;entryX=0.5;entryY=0;entryDx=0;entryDy=0;fillColor=none;" parent="1" source="a9sZFl5pfDBcxFaW0_tR-176" target="a9sZFl5pfDBcxFaW0_tR-181" edge="1">
          <mxGeometry width="50" height="50" relative="1" as="geometry">
            <mxPoint x="2240" y="1960" as="sourcePoint" />
            <mxPoint x="2140" y="1920" as="targetPoint" />
          </mxGeometry>
        </mxCell>
        <mxCell id="a9sZFl5pfDBcxFaW0_tR-185" value="" style="endArrow=blockThin;html=1;rounded=0;exitX=0.5;exitY=1;exitDx=0;exitDy=0;endFill=1;strokeColor=light-dark(#5C6A72,#D3C6AA);fontFamily=LXGW WenKai Mono Medium;fontColor=#5C6A72;entryX=0.5;entryY=0;entryDx=0;entryDy=0;fillColor=none;" parent="1" source="a9sZFl5pfDBcxFaW0_tR-177" target="a9sZFl5pfDBcxFaW0_tR-180" edge="1">
          <mxGeometry width="50" height="50" relative="1" as="geometry">
            <mxPoint x="2210" y="1900" as="sourcePoint" />
            <mxPoint x="2230" y="1910" as="targetPoint" />
          </mxGeometry>
        </mxCell>
        <mxCell id="a9sZFl5pfDBcxFaW0_tR-186" value="" style="endArrow=blockThin;html=1;rounded=0;exitX=0.5;exitY=1;exitDx=0;exitDy=0;endFill=1;strokeColor=light-dark(#5C6A72,#D3C6AA);fontFamily=LXGW WenKai Mono Medium;fontColor=#5C6A72;entryX=0.5;entryY=0;entryDx=0;entryDy=0;fillColor=none;" parent="1" source="a9sZFl5pfDBcxFaW0_tR-178" target="a9sZFl5pfDBcxFaW0_tR-183" edge="1">
          <mxGeometry width="50" height="50" relative="1" as="geometry">
            <mxPoint x="2270" y="1900" as="sourcePoint" />
            <mxPoint x="2490" y="1910" as="targetPoint" />
          </mxGeometry>
        </mxCell>
        <mxCell id="a9sZFl5pfDBcxFaW0_tR-187" value="" style="endArrow=blockThin;html=1;rounded=0;exitX=0.5;exitY=1;exitDx=0;exitDy=0;endFill=1;entryX=0.5;entryY=0;entryDx=0;entryDy=0;strokeColor=light-dark(#5C6A72,#D3C6AA);fontFamily=LXGW WenKai Mono Medium;fontColor=#5C6A72;fillColor=none;" parent="1" source="a9sZFl5pfDBcxFaW0_tR-179" target="a9sZFl5pfDBcxFaW0_tR-182" edge="1">
          <mxGeometry width="50" height="50" relative="1" as="geometry">
            <mxPoint x="2330" y="1900" as="sourcePoint" />
            <mxPoint x="2270" y="1930" as="targetPoint" />
          </mxGeometry>
        </mxCell>
        <mxCell id="a9sZFl5pfDBcxFaW0_tR-188" value="&lt;span style=&quot;text-wrap-mode: nowrap;&quot;&gt;&lt;font style=&quot;color: light-dark(rgb(92, 106, 114), rgb(211, 198, 170));&quot;&gt;REV16&lt;/font&gt;&lt;/span&gt;" style="rounded=0;whiteSpace=wrap;html=1;strokeWidth=1;fillColor=none;strokeColor=none;fontColor=light-dark(#5C6A72,#D3C6AA);fillOpacity=50;labelBackgroundColor=none;fontFamily=LXGW WenKai Mono;align=center;fontSize=17;" parent="1" vertex="1">
          <mxGeometry x="2300" y="1820" width="60" height="30" as="geometry" />
        </mxCell>
        <mxCell id="a9sZFl5pfDBcxFaW0_tR-189" value="" style="rounded=0;whiteSpace=wrap;html=1;strokeWidth=1;fillColor=none;strokeColor=light-dark(#5C6A72,#D3C6AA);fontColor=light-dark(#5C6A72,#D3C6AA);fillOpacity=50;labelBackgroundColor=none;fontFamily=LXGW WenKai Mono Medium;" parent="1" vertex="1">
          <mxGeometry x="2570" y="1860" width="60" height="30" as="geometry" />
        </mxCell>
        <mxCell id="a9sZFl5pfDBcxFaW0_tR-190" value="" style="rounded=0;whiteSpace=wrap;html=1;strokeWidth=1;fillColor=none;strokeColor=light-dark(#5C6A72,#D3C6AA);fontColor=light-dark(#5C6A72,#D3C6AA);fillOpacity=50;labelBackgroundColor=none;fontFamily=LXGW WenKai Mono Medium;" parent="1" vertex="1">
          <mxGeometry x="2660" y="1860" width="60" height="30" as="geometry" />
        </mxCell>
        <mxCell id="a9sZFl5pfDBcxFaW0_tR-191" value="" style="rounded=0;whiteSpace=wrap;html=1;strokeWidth=1;fillColor=none;strokeColor=light-dark(#5C6A72,#D3C6AA);fontColor=light-dark(#5C6A72,#D3C6AA);fillOpacity=50;labelBackgroundColor=none;fontFamily=LXGW WenKai Mono Medium;" parent="1" vertex="1">
          <mxGeometry x="2750" y="1860" width="60" height="30" as="geometry" />
        </mxCell>
        <mxCell id="a9sZFl5pfDBcxFaW0_tR-192" value="" style="rounded=0;whiteSpace=wrap;html=1;strokeWidth=1;fillColor=none;strokeColor=light-dark(#5C6A72,#D3C6AA);fontColor=light-dark(#5C6A72,#D3C6AA);fillOpacity=50;labelBackgroundColor=none;fontFamily=LXGW WenKai Mono Medium;" parent="1" vertex="1">
          <mxGeometry x="2840" y="1860" width="60" height="30" as="geometry" />
        </mxCell>
        <mxCell id="a9sZFl5pfDBcxFaW0_tR-194" value="" style="rounded=0;whiteSpace=wrap;html=1;strokeWidth=1;fillColor=none;strokeColor=light-dark(#5C6A72,#D3C6AA);fontColor=light-dark(#5C6A72,#D3C6AA);fillOpacity=50;labelBackgroundColor=none;fontFamily=LXGW WenKai Mono Medium;" parent="1" vertex="1">
          <mxGeometry x="2570" y="1930" width="180" height="30" as="geometry" />
        </mxCell>
        <mxCell id="a9sZFl5pfDBcxFaW0_tR-195" value="" style="rounded=0;whiteSpace=wrap;html=1;strokeWidth=1;fillColor=none;strokeColor=light-dark(#5C6A72,#D3C6AA);fontColor=light-dark(#5C6A72,#D3C6AA);fillOpacity=50;labelBackgroundColor=none;fontFamily=LXGW WenKai Mono Medium;" parent="1" vertex="1">
          <mxGeometry x="2750" y="1930" width="60" height="30" as="geometry" />
        </mxCell>
        <mxCell id="a9sZFl5pfDBcxFaW0_tR-196" value="" style="rounded=0;whiteSpace=wrap;html=1;strokeWidth=1;fillColor=none;strokeColor=light-dark(#5C6A72,#D3C6AA);fontColor=light-dark(#5C6A72,#D3C6AA);fillOpacity=50;labelBackgroundColor=none;fontFamily=LXGW WenKai Mono Medium;" parent="1" vertex="1">
          <mxGeometry x="2840" y="1930" width="60" height="30" as="geometry" />
        </mxCell>
        <mxCell id="a9sZFl5pfDBcxFaW0_tR-199" value="" style="endArrow=blockThin;html=1;rounded=0;exitX=0.5;exitY=1;exitDx=0;exitDy=0;endFill=1;strokeColor=light-dark(#5C6A72,#D3C6AA);fontFamily=LXGW WenKai Mono Medium;fontColor=#5C6A72;entryX=0.5;entryY=0;entryDx=0;entryDy=0;fillColor=none;" parent="1" source="a9sZFl5pfDBcxFaW0_tR-191" target="a9sZFl5pfDBcxFaW0_tR-196" edge="1">
          <mxGeometry width="50" height="50" relative="1" as="geometry">
            <mxPoint x="2680" y="1900" as="sourcePoint" />
            <mxPoint x="2900" y="1910" as="targetPoint" />
          </mxGeometry>
        </mxCell>
        <mxCell id="a9sZFl5pfDBcxFaW0_tR-200" value="" style="endArrow=blockThin;html=1;rounded=0;exitX=0.5;exitY=1;exitDx=0;exitDy=0;endFill=1;entryX=0.5;entryY=0;entryDx=0;entryDy=0;strokeColor=light-dark(#5C6A72,#D3C6AA);fontFamily=LXGW WenKai Mono Medium;fontColor=#5C6A72;fillColor=none;" parent="1" source="a9sZFl5pfDBcxFaW0_tR-192" target="a9sZFl5pfDBcxFaW0_tR-195" edge="1">
          <mxGeometry width="50" height="50" relative="1" as="geometry">
            <mxPoint x="2740" y="1900" as="sourcePoint" />
            <mxPoint x="2680" y="1930" as="targetPoint" />
          </mxGeometry>
        </mxCell>
        <mxCell id="a9sZFl5pfDBcxFaW0_tR-201" value="&lt;span style=&quot;text-wrap-mode: nowrap;&quot;&gt;&lt;font style=&quot;color: light-dark(rgb(92, 106, 114), rgb(211, 198, 170));&quot;&gt;REVSH&lt;/font&gt;&lt;/span&gt;" style="rounded=0;whiteSpace=wrap;html=1;strokeWidth=1;fillColor=none;strokeColor=none;fontColor=light-dark(#5C6A72,#D3C6AA);fillOpacity=50;labelBackgroundColor=none;fontFamily=LXGW WenKai Mono;align=center;fontSize=17;" parent="1" vertex="1">
          <mxGeometry x="2710" y="1820" width="60" height="30" as="geometry" />
        </mxCell>
        <mxCell id="a9sZFl5pfDBcxFaW0_tR-175" value="&lt;span style=&quot;text-wrap-mode: nowrap;&quot;&gt;&lt;font style=&quot;color: light-dark(rgb(92, 106, 114), rgb(211, 198, 170));&quot;&gt;有符号展开&lt;/font&gt;&lt;/span&gt;" style="rounded=0;whiteSpace=wrap;html=1;strokeWidth=1;fillColor=none;strokeColor=none;fontColor=light-dark(#5C6A72,#D3C6AA);fillOpacity=50;labelBackgroundColor=none;fontFamily=LXGW WenKai Mono;align=center;fontSize=17;" parent="1" vertex="1">
          <mxGeometry x="2570" y="1932" width="180" height="20" as="geometry" />
        </mxCell>
        <mxCell id="a9sZFl5pfDBcxFaW0_tR-202" value="" style="endArrow=none;html=1;rounded=0;fontFamily=LXGW WenKai Mono;fontSize=17;fontColor=#5C6A72;labelBackgroundColor=none;autosize=1;resizable=0;strokeColor=light-dark(#5C6A72,#D3C6AA);fillColor=none;" parent="1" edge="1">
          <mxGeometry width="50" height="50" relative="1" as="geometry">
            <mxPoint x="2170" y="2150" as="sourcePoint" />
            <mxPoint x="2170" y="2120" as="targetPoint" />
          </mxGeometry>
        </mxCell>
        <mxCell id="a9sZFl5pfDBcxFaW0_tR-203" value="" style="endArrow=blockThin;html=1;rounded=0;endFill=1;entryX=1;entryY=0.5;entryDx=0;entryDy=0;strokeColor=light-dark(#5C6A72,#D3C6AA);fontColor=#5C6A72;fontFamily=LXGW WenKai Mono;fontSize=17;fillColor=none;" parent="1" target="a9sZFl5pfDBcxFaW0_tR-207" edge="1">
          <mxGeometry width="50" height="50" relative="1" as="geometry">
            <mxPoint x="2170" y="2150" as="sourcePoint" />
            <mxPoint x="2159.44" y="2149.7200000000003" as="targetPoint" />
          </mxGeometry>
        </mxCell>
        <mxCell id="a9sZFl5pfDBcxFaW0_tR-204" value="" style="endArrow=none;html=1;rounded=0;fontFamily=LXGW WenKai Mono;fontSize=17;fontColor=#5C6A72;labelBackgroundColor=none;autosize=1;resizable=0;strokeColor=light-dark(#5C6A72,#D3C6AA);fillColor=none;" parent="1" edge="1">
          <mxGeometry width="50" height="50" relative="1" as="geometry">
            <mxPoint x="2259.71" y="2150" as="sourcePoint" />
            <mxPoint x="2260" y="2120" as="targetPoint" />
          </mxGeometry>
        </mxCell>
        <mxCell id="a9sZFl5pfDBcxFaW0_tR-205" value="" style="endArrow=blockThin;html=1;rounded=0;endFill=1;strokeColor=light-dark(#5C6A72,#D3C6AA);fontColor=#5C6A72;fontFamily=LXGW WenKai Mono;fontSize=17;fillColor=none;" parent="1" edge="1">
          <mxGeometry width="50" height="50" relative="1" as="geometry">
            <mxPoint x="2260" y="2149.93" as="sourcePoint" />
            <mxPoint x="2300" y="2149.93" as="targetPoint" />
          </mxGeometry>
        </mxCell>
        <mxCell id="a9sZFl5pfDBcxFaW0_tR-206" value="&lt;font style=&quot;color: light-dark(rgb(92, 106, 114), rgb(211, 198, 170));&quot;&gt;&lt;font style=&quot;text-align: left; text-wrap-mode: nowrap;&quot;&gt;IT&amp;nbsp;&lt;/font&gt;&lt;font style=&quot;text-align: left; text-wrap-mode: nowrap;&quot;&gt;_ _ _&lt;/font&gt;&lt;span style=&quot;text-align: left; text-wrap-mode: nowrap;&quot;&gt;&amp;nbsp; &amp;nbsp; 条件码&lt;/span&gt;&lt;/font&gt;" style="rounded=0;whiteSpace=wrap;html=1;strokeWidth=1;fillColor=none;strokeColor=none;fontColor=#5C6A72;fillOpacity=50;labelBackgroundColor=none;gradientColor=none;fontFamily=LXGW WenKai Mono;align=center;fontSize=17;" parent="1" vertex="1">
          <mxGeometry x="2120" y="2090" width="170" height="30" as="geometry" />
        </mxCell>
        <mxCell id="a9sZFl5pfDBcxFaW0_tR-207" value="&lt;span style=&quot;text-wrap-mode: nowrap;&quot;&gt;&lt;font style=&quot;color: light-dark(rgb(92, 106, 114), rgb(211, 198, 170));&quot;&gt;T（then）、E（else）&lt;/font&gt;&lt;/span&gt;" style="rounded=0;whiteSpace=wrap;html=1;strokeWidth=1;fillColor=none;strokeColor=none;fontColor=#5C6A72;fillOpacity=50;labelBackgroundColor=none;gradientColor=none;fontFamily=LXGW WenKai Mono;align=right;fontSize=17;" parent="1" vertex="1">
          <mxGeometry x="1960" y="2140" width="170" height="20" as="geometry" />
        </mxCell>
        <mxCell id="a9sZFl5pfDBcxFaW0_tR-208" value="&lt;span style=&quot;text-wrap-mode: nowrap;&quot;&gt;&lt;font style=&quot;color: light-dark(rgb(92, 106, 114), rgb(211, 198, 170));&quot;&gt;GE、NE、EQ 等等&lt;/font&gt;&lt;/span&gt;" style="rounded=0;whiteSpace=wrap;html=1;strokeWidth=1;fillColor=none;strokeColor=none;fontColor=#5C6A72;fillOpacity=50;labelBackgroundColor=none;gradientColor=none;fontFamily=LXGW WenKai Mono;align=left;fontSize=17;" parent="1" vertex="1">
          <mxGeometry x="2310" y="2140" width="140" height="20" as="geometry" />
        </mxCell>
        <mxCell id="a9sZFl5pfDBcxFaW0_tR-211" value="&lt;span style=&quot;text-wrap: nowrap;&quot;&gt;&lt;font style=&quot;color: light-dark(rgb(92, 106, 114), rgb(211, 198, 170));&quot;&gt;TBB [PC, 3]&lt;/font&gt;&lt;/span&gt;" style="rounded=0;whiteSpace=wrap;html=1;strokeWidth=1;fillColor=none;strokeColor=light-dark(#5C6A72,#D3C6AA);fontColor=light-dark(#5C6A72,#D3C6AA);fillOpacity=50;labelBackgroundColor=none;align=center;fontFamily=LXGW WenKai Mono;fontSize=17;" parent="1" vertex="1">
          <mxGeometry x="1740" y="2280" width="160" height="120" as="geometry" />
        </mxCell>
        <mxCell id="a9sZFl5pfDBcxFaW0_tR-212" value="&lt;span style=&quot;text-wrap: nowrap;&quot;&gt;&lt;font style=&quot;color: light-dark(rgb(92, 106, 114), rgb(211, 198, 170));&quot;&gt;tab0 = 0x4&lt;/font&gt;&lt;/span&gt;" style="rounded=0;whiteSpace=wrap;html=1;strokeWidth=1;fillColor=none;strokeColor=light-dark(#5C6A72,#D3C6AA);fontColor=light-dark(#5C6A72,#D3C6AA);fillOpacity=50;labelBackgroundColor=none;align=center;fontFamily=LXGW WenKai Mono;fontSize=17;" parent="1" vertex="1">
          <mxGeometry x="1740" y="2400" width="160" height="30" as="geometry" />
        </mxCell>
        <mxCell id="a9sZFl5pfDBcxFaW0_tR-213" value="&lt;span style=&quot;text-wrap: nowrap;&quot;&gt;&lt;font style=&quot;color: light-dark(rgb(92, 106, 114), rgb(211, 198, 170));&quot;&gt;tab1 = 0x6&lt;/font&gt;&lt;/span&gt;" style="rounded=0;whiteSpace=wrap;html=1;strokeWidth=1;fillColor=none;strokeColor=light-dark(#5C6A72,#D3C6AA);fontColor=light-dark(#5C6A72,#D3C6AA);fillOpacity=50;labelBackgroundColor=none;align=center;fontFamily=LXGW WenKai Mono;fontSize=17;" parent="1" vertex="1">
          <mxGeometry x="1740" y="2430" width="160" height="30" as="geometry" />
        </mxCell>
        <mxCell id="a9sZFl5pfDBcxFaW0_tR-214" value="&lt;span style=&quot;text-wrap: nowrap;&quot;&gt;&lt;font style=&quot;color: light-dark(rgb(92, 106, 114), rgb(211, 198, 170));&quot;&gt;tab2 = 0x8&lt;/font&gt;&lt;/span&gt;" style="rounded=0;whiteSpace=wrap;html=1;strokeWidth=1;fillColor=none;strokeColor=light-dark(#5C6A72,#D3C6AA);fontColor=light-dark(#5C6A72,#D3C6AA);fillOpacity=50;labelBackgroundColor=none;align=center;fontFamily=LXGW WenKai Mono;fontSize=17;" parent="1" vertex="1">
          <mxGeometry x="1740" y="2460" width="160" height="30" as="geometry" />
        </mxCell>
        <mxCell id="a9sZFl5pfDBcxFaW0_tR-215" value="&lt;span style=&quot;text-wrap: nowrap;&quot;&gt;&lt;font style=&quot;color: light-dark(rgb(92, 106, 114), rgb(211, 198, 170));&quot;&gt;tab3 =&amp;nbsp;&lt;font&gt;0xA&lt;/font&gt;&lt;/font&gt;&lt;/span&gt;" style="rounded=0;whiteSpace=wrap;html=1;strokeWidth=1;fillColor=none;strokeColor=light-dark(#5C6A72,#D3C6AA);fontColor=light-dark(#5C6A72,#D3C6AA);fillOpacity=50;labelBackgroundColor=none;align=center;fontFamily=LXGW WenKai Mono;fontSize=17;" parent="1" vertex="1">
          <mxGeometry x="1740" y="2490" width="160" height="30" as="geometry" />
        </mxCell>
        <mxCell id="a9sZFl5pfDBcxFaW0_tR-216" value="&lt;span style=&quot;text-wrap: nowrap;&quot;&gt;&lt;font style=&quot;color: light-dark(rgb(92, 106, 114), rgb(211, 198, 170));&quot;&gt;指令&lt;/font&gt;&lt;/span&gt;" style="rounded=0;whiteSpace=wrap;html=1;strokeWidth=1;fillColor=none;strokeColor=light-dark(#5C6A72,#D3C6AA);fontColor=light-dark(#5C6A72,#D3C6AA);fillOpacity=50;labelBackgroundColor=none;align=center;fontFamily=LXGW WenKai Mono;fontSize=17;" parent="1" vertex="1">
          <mxGeometry x="1740" y="2560" width="160" height="120" as="geometry" />
        </mxCell>
        <mxCell id="a9sZFl5pfDBcxFaW0_tR-221" value="&lt;font style=&quot;color: light-dark(rgb(92, 106, 114), rgb(211, 198, 170));&quot;&gt;PC&lt;/font&gt;" style="rounded=0;whiteSpace=wrap;html=1;strokeWidth=1;fillColor=none;strokeColor=light-dark(#5C6A72,#D3C6AA);fontColor=light-dark(#5C6A72,#D3C6AA);fillOpacity=50;labelBackgroundColor=none;fontSize=17;fontFamily=LXGW WenKai Mono;" parent="1" vertex="1">
          <mxGeometry x="2120" y="2400" width="50" height="30" as="geometry" />
        </mxCell>
        <mxCell id="a9sZFl5pfDBcxFaW0_tR-222" value="&lt;font style=&quot;color: light-dark(rgb(92, 106, 114), rgb(211, 198, 170));&quot;&gt;当前执行&lt;/font&gt;" style="rounded=0;whiteSpace=wrap;html=1;strokeWidth=1;fillColor=none;strokeColor=light-dark(#5C6A72,#D3C6AA);fontColor=light-dark(#5C6A72,#D3C6AA);fillOpacity=50;labelBackgroundColor=none;fontSize=17;fontFamily=LXGW WenKai Mono;" parent="1" vertex="1">
          <mxGeometry x="1930" y="2280" width="160" height="30" as="geometry" />
        </mxCell>
        <mxCell id="a9sZFl5pfDBcxFaW0_tR-223" value="" style="endArrow=blockThin;html=1;rounded=0;exitX=0;exitY=0.5;exitDx=0;exitDy=0;endFill=1;strokeColor=light-dark(#5C6A72,#D3C6AA);fontSize=17;fontFamily=LXGW WenKai Mono;fontColor=#5C6A72;fillColor=none;" parent="1" source="a9sZFl5pfDBcxFaW0_tR-222" edge="1">
          <mxGeometry width="50" height="50" relative="1" as="geometry">
            <mxPoint x="1955" y="2329.62" as="sourcePoint" />
            <mxPoint x="1900" y="2295" as="targetPoint" />
          </mxGeometry>
        </mxCell>
        <mxCell id="a9sZFl5pfDBcxFaW0_tR-224" value="&lt;font style=&quot;color: light-dark(rgb(92, 106, 114), rgb(211, 198, 170));&quot;&gt;jumptable + 3&lt;/font&gt;" style="rounded=0;whiteSpace=wrap;html=1;strokeWidth=1;fillColor=none;strokeColor=light-dark(#5C6A72,#D3C6AA);fontColor=light-dark(#5C6A72,#D3C6AA);fillOpacity=50;labelBackgroundColor=none;fontSize=17;fontFamily=LXGW WenKai Mono;" parent="1" vertex="1">
          <mxGeometry x="1930" y="2490" width="190" height="30" as="geometry" />
        </mxCell>
        <mxCell id="a9sZFl5pfDBcxFaW0_tR-225" value="&lt;font style=&quot;color: light-dark(rgb(92, 106, 114), rgb(211, 198, 170));&quot;&gt;case0&lt;/font&gt;" style="rounded=0;whiteSpace=wrap;html=1;strokeWidth=1;fillColor=none;strokeColor=light-dark(#5C6A72,#D3C6AA);fontColor=light-dark(#5C6A72,#D3C6AA);fillOpacity=50;labelBackgroundColor=none;fontSize=17;fontFamily=LXGW WenKai Mono;" parent="1" vertex="1">
          <mxGeometry x="1930" y="2560" width="80" height="30" as="geometry" />
        </mxCell>
        <mxCell id="a9sZFl5pfDBcxFaW0_tR-229" value="" style="endArrow=blockThin;html=1;rounded=0;exitX=0;exitY=0.5;exitDx=0;exitDy=0;endFill=1;entryX=1;entryY=0.5;entryDx=0;entryDy=0;strokeColor=light-dark(#5C6A72,#D3C6AA);fontSize=17;fontFamily=LXGW WenKai Mono;fontColor=#5C6A72;fillColor=none;" parent="1" source="a9sZFl5pfDBcxFaW0_tR-234" target="a9sZFl5pfDBcxFaW0_tR-212" edge="1">
          <mxGeometry width="50" height="50" relative="1" as="geometry">
            <mxPoint x="1960" y="2409.6" as="sourcePoint" />
            <mxPoint x="1900" y="2409.6" as="targetPoint" />
          </mxGeometry>
        </mxCell>
        <mxCell id="a9sZFl5pfDBcxFaW0_tR-230" value="" style="endArrow=blockThin;html=1;rounded=0;exitX=0;exitY=0.5;exitDx=0;exitDy=0;endFill=1;strokeColor=light-dark(#5C6A72,#D3C6AA);fontSize=17;fontFamily=LXGW WenKai Mono;fontColor=#5C6A72;fillColor=none;" parent="1" source="a9sZFl5pfDBcxFaW0_tR-225" edge="1">
          <mxGeometry width="50" height="50" relative="1" as="geometry">
            <mxPoint x="1950" y="2569.6" as="sourcePoint" />
            <mxPoint x="1900" y="2575" as="targetPoint" />
          </mxGeometry>
        </mxCell>
        <mxCell id="a9sZFl5pfDBcxFaW0_tR-234" value="&lt;font style=&quot;color: light-dark(rgb(92, 106, 114), rgb(211, 198, 170));&quot;&gt;jumptable&lt;/font&gt;" style="rounded=0;whiteSpace=wrap;html=1;strokeWidth=1;fillColor=none;strokeColor=light-dark(#5C6A72,#D3C6AA);fontColor=light-dark(#5C6A72,#D3C6AA);fillOpacity=50;labelBackgroundColor=none;fontSize=17;fontFamily=LXGW WenKai Mono;" parent="1" vertex="1">
          <mxGeometry x="1930" y="2400" width="160" height="30" as="geometry" />
        </mxCell>
        <mxCell id="a9sZFl5pfDBcxFaW0_tR-235" value="" style="endArrow=blockThin;html=1;rounded=0;exitX=0;exitY=0.5;exitDx=0;exitDy=0;endFill=1;entryX=1;entryY=0.5;entryDx=0;entryDy=0;strokeColor=light-dark(#5C6A72,#D3C6AA);fontSize=17;fontFamily=LXGW WenKai Mono;fontColor=#5C6A72;fillColor=none;" parent="1" source="a9sZFl5pfDBcxFaW0_tR-224" target="a9sZFl5pfDBcxFaW0_tR-215" edge="1">
          <mxGeometry width="50" height="50" relative="1" as="geometry">
            <mxPoint x="1960" y="2499.6" as="sourcePoint" />
            <mxPoint x="1900" y="2499.6" as="targetPoint" />
          </mxGeometry>
        </mxCell>
        <mxCell id="a9sZFl5pfDBcxFaW0_tR-236" value="" style="endArrow=blockThin;html=1;rounded=0;exitX=0;exitY=0.5;exitDx=0;exitDy=0;endFill=1;entryX=1;entryY=0.5;entryDx=0;entryDy=0;strokeColor=light-dark(#5C6A72,#D3C6AA);fontSize=17;fontFamily=LXGW WenKai Mono;fontColor=#5C6A72;fillColor=none;" parent="1" source="a9sZFl5pfDBcxFaW0_tR-221" target="a9sZFl5pfDBcxFaW0_tR-234" edge="1">
          <mxGeometry width="50" height="50" relative="1" as="geometry">
            <mxPoint x="1970" y="2419.6" as="sourcePoint" />
            <mxPoint x="1910" y="2419.6" as="targetPoint" />
          </mxGeometry>
        </mxCell>
        <mxCell id="a9sZFl5pfDBcxFaW0_tR-239" value="" style="endArrow=blockThin;html=1;rounded=0;endFill=1;strokeColor=light-dark(#5C6A72,#D3C6AA);fontSize=17;fontFamily=LXGW WenKai Mono;fontColor=#5C6A72;exitX=0.75;exitY=1;exitDx=0;exitDy=0;entryX=0.5;entryY=0;entryDx=0;entryDy=0;fillColor=none;" parent="1" edge="1">
          <mxGeometry width="50" height="50" relative="1" as="geometry">
            <mxPoint x="2080" y="2520" as="sourcePoint" />
            <mxPoint x="2080" y="2920" as="targetPoint" />
          </mxGeometry>
        </mxCell>
        <mxCell id="a9sZFl5pfDBcxFaW0_tR-240" value="&lt;span style=&quot;text-wrap-mode: nowrap;&quot;&gt;&lt;font style=&quot;color: light-dark(rgb(92, 106, 114), rgb(211, 198, 170));&quot;&gt;0x1000&lt;/font&gt;&lt;/span&gt;" style="rounded=0;whiteSpace=wrap;html=1;strokeWidth=1;fillColor=none;strokeColor=none;fontColor=light-dark(#5C6A72,#C1C1C1);fillOpacity=50;labelBackgroundColor=none;gradientColor=none;fontFamily=LXGW WenKai Mono;fontSize=17;" parent="1" vertex="1">
          <mxGeometry x="1670" y="2280" width="70" height="25" as="geometry" />
        </mxCell>
        <mxCell id="a9sZFl5pfDBcxFaW0_tR-241" value="&lt;span style=&quot;text-wrap-mode: nowrap;&quot;&gt;&lt;font style=&quot;color: light-dark(rgb(92, 106, 114), rgb(211, 198, 170));&quot;&gt;0x1004&lt;/font&gt;&lt;/span&gt;" style="rounded=0;whiteSpace=wrap;html=1;strokeWidth=1;fillColor=none;strokeColor=none;fontColor=light-dark(#5C6A72,#C1C1C1);fillOpacity=50;labelBackgroundColor=none;gradientColor=none;fontFamily=LXGW WenKai Mono;fontSize=17;" parent="1" vertex="1">
          <mxGeometry x="1670" y="2400" width="70" height="30" as="geometry" />
        </mxCell>
        <mxCell id="a9sZFl5pfDBcxFaW0_tR-242" value="&lt;span style=&quot;text-wrap-mode: nowrap;&quot;&gt;&lt;font style=&quot;color: light-dark(rgb(92, 106, 114), rgb(211, 198, 170));&quot;&gt;0x1005&lt;/font&gt;&lt;/span&gt;" style="rounded=0;whiteSpace=wrap;html=1;strokeWidth=1;fillColor=none;strokeColor=none;fontColor=light-dark(#5C6A72,#C1C1C1);fillOpacity=50;labelBackgroundColor=none;gradientColor=none;fontFamily=LXGW WenKai Mono;fontSize=17;" parent="1" vertex="1">
          <mxGeometry x="1670" y="2430" width="70" height="30" as="geometry" />
        </mxCell>
        <mxCell id="a9sZFl5pfDBcxFaW0_tR-243" value="&lt;span style=&quot;text-wrap-mode: nowrap;&quot;&gt;&lt;font style=&quot;color: light-dark(rgb(92, 106, 114), rgb(211, 198, 170));&quot;&gt;0x1006&lt;/font&gt;&lt;/span&gt;" style="rounded=0;whiteSpace=wrap;html=1;strokeWidth=1;fillColor=none;strokeColor=none;fontColor=light-dark(#5C6A72,#C1C1C1);fillOpacity=50;labelBackgroundColor=none;gradientColor=none;fontFamily=LXGW WenKai Mono;fontSize=17;" parent="1" vertex="1">
          <mxGeometry x="1670" y="2460" width="70" height="30" as="geometry" />
        </mxCell>
        <mxCell id="a9sZFl5pfDBcxFaW0_tR-244" value="&lt;span style=&quot;text-wrap-mode: nowrap;&quot;&gt;&lt;font style=&quot;color: light-dark(rgb(92, 106, 114), rgb(211, 198, 170));&quot;&gt;0x1007&lt;/font&gt;&lt;/span&gt;" style="rounded=0;whiteSpace=wrap;html=1;strokeWidth=1;fillColor=none;strokeColor=none;fontColor=light-dark(#5C6A72,#C1C1C1);fillOpacity=50;labelBackgroundColor=none;gradientColor=none;fontFamily=LXGW WenKai Mono;fontSize=17;" parent="1" vertex="1">
          <mxGeometry x="1670" y="2490" width="70" height="30" as="geometry" />
        </mxCell>
        <mxCell id="a9sZFl5pfDBcxFaW0_tR-245" value="&lt;span style=&quot;text-wrap-mode: nowrap;&quot;&gt;&lt;font style=&quot;color: light-dark(rgb(92, 106, 114), rgb(211, 198, 170));&quot;&gt;0x100C&lt;/font&gt;&lt;/span&gt;" style="rounded=0;whiteSpace=wrap;html=1;strokeWidth=1;fillColor=none;strokeColor=none;fontColor=light-dark(#5C6A72,#C1C1C1);fillOpacity=50;labelBackgroundColor=none;gradientColor=none;fontFamily=LXGW WenKai Mono;fontSize=17;" parent="1" vertex="1">
          <mxGeometry x="1670" y="2560" width="70" height="30" as="geometry" />
        </mxCell>
        <mxCell id="a9sZFl5pfDBcxFaW0_tR-246" value="&lt;span style=&quot;text-wrap-mode: nowrap;&quot;&gt;&lt;font style=&quot;color: light-dark(rgb(92, 106, 114), rgb(211, 198, 170));&quot;&gt;0x1010&lt;/font&gt;&lt;/span&gt;" style="rounded=0;whiteSpace=wrap;html=1;strokeWidth=1;fillColor=none;strokeColor=none;fontColor=light-dark(#5C6A72,#C1C1C1);fillOpacity=50;labelBackgroundColor=none;gradientColor=none;fontFamily=LXGW WenKai Mono;fontSize=17;" parent="1" vertex="1">
          <mxGeometry x="1670" y="2680" width="70" height="30" as="geometry" />
        </mxCell>
        <mxCell id="a9sZFl5pfDBcxFaW0_tR-247" value="&lt;span style=&quot;text-wrap-mode: nowrap;&quot;&gt;&lt;font style=&quot;color: light-dark(rgb(92, 106, 114), rgb(211, 198, 170));&quot;&gt;0x1014&lt;/font&gt;&lt;/span&gt;" style="rounded=0;whiteSpace=wrap;html=1;strokeWidth=1;fillColor=none;strokeColor=none;fontColor=light-dark(#5C6A72,#C1C1C1);fillOpacity=50;labelBackgroundColor=none;gradientColor=none;fontFamily=LXGW WenKai Mono;fontSize=17;" parent="1" vertex="1">
          <mxGeometry x="1670" y="2800" width="70" height="30" as="geometry" />
        </mxCell>
        <mxCell id="a9sZFl5pfDBcxFaW0_tR-248" value="&lt;span style=&quot;text-wrap-mode: nowrap;&quot;&gt;&lt;font style=&quot;color: light-dark(rgb(92, 106, 114), rgb(211, 198, 170));&quot;&gt;0x1018&lt;/font&gt;&lt;/span&gt;" style="rounded=0;whiteSpace=wrap;html=1;strokeWidth=1;fillColor=none;strokeColor=none;fontColor=light-dark(#5C6A72,#C1C1C1);fillOpacity=50;labelBackgroundColor=none;gradientColor=none;fontFamily=LXGW WenKai Mono;fontSize=17;" parent="1" vertex="1">
          <mxGeometry x="1670" y="2920" width="70" height="30" as="geometry" />
        </mxCell>
        <mxCell id="a9sZFl5pfDBcxFaW0_tR-249" value="&lt;span style=&quot;text-wrap-mode: nowrap;&quot;&gt;&lt;font style=&quot;color: light-dark(rgb(248, 85, 82), rgb(230, 126, 128));&quot;&gt;TBB [Rn, Rm]&lt;/font&gt;&lt;/span&gt;" style="rounded=0;whiteSpace=wrap;html=1;strokeWidth=1;fillColor=none;strokeColor=none;fontColor=light-dark(#5C6A72,#C1C1C1);fillOpacity=50;labelBackgroundColor=none;gradientColor=none;fontFamily=LXGW WenKai Mono;fontSize=17;" parent="1" vertex="1">
          <mxGeometry x="1740" y="2250" width="160" height="30" as="geometry" />
        </mxCell>
        <mxCell id="a9sZFl5pfDBcxFaW0_tR-250" value="&lt;span style=&quot;text-wrap-mode: nowrap;&quot;&gt;&lt;font style=&quot;color: light-dark(rgb(248, 85, 82), rgb(230, 126, 128));&quot;&gt;Cortex-M3/4 中，读 PC 寄存器的返回值 = 当前指令地址 + 4&lt;/font&gt;&lt;/span&gt;" style="rounded=0;whiteSpace=wrap;html=1;strokeWidth=1;fillColor=none;strokeColor=none;fontColor=light-dark(#5C6A72,#C1C1C1);fillOpacity=50;labelBackgroundColor=none;gradientColor=none;fontFamily=LXGW WenKai Mono;align=left;fontSize=17;" parent="1" vertex="1">
          <mxGeometry x="2180" y="2400" width="480" height="30" as="geometry" />
        </mxCell>
        <mxCell id="a9sZFl5pfDBcxFaW0_tR-251" value="&lt;font style=&quot;color: light-dark(rgb(248, 85, 82), rgb(230, 126, 128));&quot;&gt;&lt;font style=&quot;text-wrap-mode: nowrap;&quot;&gt;tab3 = (case3 - jumptable)/2 = (&lt;/font&gt;&lt;span style=&quot;text-wrap-mode: nowrap; background-color: transparent;&quot;&gt;0x1018 - 0x1004)/2 = 0xA&lt;/span&gt;&lt;/font&gt;" style="rounded=0;whiteSpace=wrap;html=1;strokeWidth=1;fillColor=none;strokeColor=none;fontColor=light-dark(#5C6A72,#C1C1C1);fillOpacity=50;labelBackgroundColor=none;gradientColor=none;fontFamily=LXGW WenKai Mono;align=left;fontSize=17;" parent="1" vertex="1">
          <mxGeometry x="2130" y="2490" width="540" height="30" as="geometry" />
        </mxCell>
        <mxCell id="a9sZFl5pfDBcxFaW0_tR-253" value="&lt;span style=&quot;text-wrap-mode: nowrap;&quot;&gt;&lt;font style=&quot;color: light-dark(rgb(248, 85, 82), rgb(230, 126, 128));&quot;&gt;Cortex-M3/4 支持 16 位指令&lt;/font&gt;&lt;/span&gt;" style="rounded=0;whiteSpace=wrap;html=1;strokeWidth=1;fillColor=none;strokeColor=none;fontColor=light-dark(#5C6A72,#C1C1C1);fillOpacity=50;labelBackgroundColor=none;gradientColor=none;fontFamily=LXGW WenKai Mono;align=left;fontSize=17;" parent="1" vertex="1">
          <mxGeometry x="2160" y="2640" width="335" height="30" as="geometry" />
        </mxCell>
        <mxCell id="a9sZFl5pfDBcxFaW0_tR-254" value="&lt;div&gt;&lt;font style=&quot;text-wrap-mode: nowrap; color: light-dark(rgb(248, 85, 82), rgb(230, 126, 128));&quot;&gt;指令按 2 字节边界对齐&lt;/font&gt;&lt;/div&gt;" style="rounded=0;whiteSpace=wrap;html=1;strokeWidth=1;fillColor=none;strokeColor=none;fontColor=light-dark(#5C6A72,#C1C1C1);fillOpacity=50;labelBackgroundColor=none;gradientColor=none;fontFamily=LXGW WenKai Mono;align=left;fontSize=17;" parent="1" vertex="1">
          <mxGeometry x="2160" y="2670" width="335" height="30" as="geometry" />
        </mxCell>
        <mxCell id="a9sZFl5pfDBcxFaW0_tR-255" value="&lt;font style=&quot;text-wrap-mode: nowrap; color: light-dark(rgb(248, 85, 82), rgb(230, 126, 128));&quot;&gt;指令地址的最后一位永远是 0&lt;/font&gt;" style="rounded=0;whiteSpace=wrap;html=1;strokeWidth=1;fillColor=none;strokeColor=none;fontColor=light-dark(#5C6A72,#C1C1C1);fillOpacity=50;labelBackgroundColor=none;gradientColor=none;fontFamily=LXGW WenKai Mono;align=left;fontSize=17;" parent="1" vertex="1">
          <mxGeometry x="2160" y="2700" width="335" height="30" as="geometry" />
        </mxCell>
        <mxCell id="a9sZFl5pfDBcxFaW0_tR-256" value="&lt;span style=&quot;text-wrap-mode: nowrap;&quot;&gt;&lt;font style=&quot;color: light-dark(rgb(248, 85, 82), rgb(230, 126, 128));&quot;&gt;所以除以 2 增加偏移寻址的范围&lt;/font&gt;&lt;/span&gt;" style="rounded=0;whiteSpace=wrap;html=1;strokeWidth=1;fillColor=none;strokeColor=none;fontColor=light-dark(#5C6A72,#C1C1C1);fillOpacity=50;labelBackgroundColor=none;gradientColor=none;fontFamily=LXGW WenKai Mono;align=left;fontSize=17;" parent="1" vertex="1">
          <mxGeometry x="2160" y="2730" width="335" height="30" as="geometry" />
        </mxCell>
        <mxCell id="a9sZFl5pfDBcxFaW0_tR-257" value="&lt;span style=&quot;text-wrap-mode: nowrap;&quot;&gt;&lt;font style=&quot;color: light-dark(rgb(92, 106, 114), rgb(211, 198, 170));&quot;&gt;...&lt;/font&gt;&lt;/span&gt;" style="rounded=0;whiteSpace=wrap;html=1;strokeWidth=1;fillColor=none;strokeColor=none;fontColor=light-dark(#5C6A72,#D3C6AA);fillOpacity=50;labelBackgroundColor=none;fontFamily=LXGW WenKai Mono;fontSize=17;" parent="1" vertex="1">
          <mxGeometry x="1792.5" y="2520" width="55" height="30" as="geometry" />
        </mxCell>
        <mxCell id="a9sZFl5pfDBcxFaW0_tR-259" value="&lt;span style=&quot;text-wrap: nowrap;&quot;&gt;&lt;font style=&quot;color: light-dark(rgb(92, 106, 114), rgb(211, 198, 170));&quot;&gt;指令&lt;/font&gt;&lt;/span&gt;" style="rounded=0;whiteSpace=wrap;html=1;strokeWidth=1;fillColor=none;strokeColor=light-dark(#5C6A72,#D3C6AA);fontColor=light-dark(#5C6A72,#D3C6AA);fillOpacity=50;labelBackgroundColor=none;align=center;fontFamily=LXGW WenKai Mono;fontSize=17;" parent="1" vertex="1">
          <mxGeometry x="1740" y="2680" width="160" height="120" as="geometry" />
        </mxCell>
        <mxCell id="a9sZFl5pfDBcxFaW0_tR-260" value="&lt;font style=&quot;color: light-dark(rgb(92, 106, 114), rgb(211, 198, 170));&quot;&gt;case1&lt;/font&gt;" style="rounded=0;whiteSpace=wrap;html=1;strokeWidth=1;fillColor=none;strokeColor=light-dark(#5C6A72,#D3C6AA);fontColor=light-dark(#5C6A72,#D3C6AA);fillOpacity=50;labelBackgroundColor=none;fontSize=17;fontFamily=LXGW WenKai Mono;" parent="1" vertex="1">
          <mxGeometry x="1930" y="2680" width="80" height="30" as="geometry" />
        </mxCell>
        <mxCell id="a9sZFl5pfDBcxFaW0_tR-261" value="" style="endArrow=blockThin;html=1;rounded=0;exitX=0;exitY=0.5;exitDx=0;exitDy=0;endFill=1;strokeColor=light-dark(#5C6A72,#D3C6AA);fontSize=17;fontFamily=LXGW WenKai Mono;fontColor=#5C6A72;fillColor=none;" parent="1" source="a9sZFl5pfDBcxFaW0_tR-260" edge="1">
          <mxGeometry width="50" height="50" relative="1" as="geometry">
            <mxPoint x="1950" y="2689.6" as="sourcePoint" />
            <mxPoint x="1900" y="2695" as="targetPoint" />
          </mxGeometry>
        </mxCell>
        <mxCell id="a9sZFl5pfDBcxFaW0_tR-262" value="&lt;span style=&quot;text-wrap: nowrap;&quot;&gt;&lt;font style=&quot;color: light-dark(rgb(92, 106, 114), rgb(211, 198, 170));&quot;&gt;指令&lt;/font&gt;&lt;/span&gt;" style="rounded=0;whiteSpace=wrap;html=1;strokeWidth=1;fillColor=none;strokeColor=light-dark(#5C6A72,#D3C6AA);fontColor=light-dark(#5C6A72,#D3C6AA);fillOpacity=50;labelBackgroundColor=none;align=center;fontFamily=LXGW WenKai Mono;fontSize=17;" parent="1" vertex="1">
          <mxGeometry x="1740" y="2800" width="160" height="120" as="geometry" />
        </mxCell>
        <mxCell id="a9sZFl5pfDBcxFaW0_tR-263" value="&lt;font style=&quot;color: light-dark(rgb(92, 106, 114), rgb(211, 198, 170));&quot;&gt;case2&lt;/font&gt;" style="rounded=0;whiteSpace=wrap;html=1;strokeWidth=1;fillColor=none;strokeColor=light-dark(#5C6A72,#D3C6AA);fontColor=light-dark(#5C6A72,#D3C6AA);fillOpacity=50;labelBackgroundColor=none;fontSize=17;fontFamily=LXGW WenKai Mono;" parent="1" vertex="1">
          <mxGeometry x="1930" y="2800" width="80" height="30" as="geometry" />
        </mxCell>
        <mxCell id="a9sZFl5pfDBcxFaW0_tR-264" value="" style="endArrow=blockThin;html=1;rounded=0;exitX=0;exitY=0.5;exitDx=0;exitDy=0;endFill=1;strokeColor=light-dark(#5C6A72,#D3C6AA);fontSize=17;fontFamily=LXGW WenKai Mono;fontColor=#5C6A72;fillColor=none;" parent="1" source="a9sZFl5pfDBcxFaW0_tR-263" edge="1">
          <mxGeometry width="50" height="50" relative="1" as="geometry">
            <mxPoint x="1950" y="2809.6" as="sourcePoint" />
            <mxPoint x="1900" y="2815" as="targetPoint" />
          </mxGeometry>
        </mxCell>
        <mxCell id="a9sZFl5pfDBcxFaW0_tR-265" value="&lt;span style=&quot;text-wrap: nowrap;&quot;&gt;&lt;font style=&quot;color: light-dark(rgb(92, 106, 114), rgb(211, 198, 170));&quot;&gt;指令&lt;/font&gt;&lt;/span&gt;" style="rounded=0;whiteSpace=wrap;html=1;strokeWidth=1;fillColor=none;strokeColor=light-dark(#5C6A72,#D3C6AA);fontColor=light-dark(#5C6A72,#D3C6AA);fillOpacity=50;labelBackgroundColor=none;align=center;fontFamily=LXGW WenKai Mono;fontSize=17;" parent="1" vertex="1">
          <mxGeometry x="1740" y="2920" width="160" height="120" as="geometry" />
        </mxCell>
        <mxCell id="a9sZFl5pfDBcxFaW0_tR-266" value="&lt;font style=&quot;color: light-dark(rgb(92, 106, 114), rgb(211, 198, 170));&quot;&gt;case3&lt;/font&gt;" style="rounded=0;whiteSpace=wrap;html=1;strokeWidth=1;fillColor=none;strokeColor=light-dark(#5C6A72,#D3C6AA);fontColor=light-dark(#5C6A72,#D3C6AA);fillOpacity=50;labelBackgroundColor=none;fontSize=17;fontFamily=LXGW WenKai Mono;" parent="1" vertex="1">
          <mxGeometry x="1930" y="2920" width="80" height="30" as="geometry" />
        </mxCell>
        <mxCell id="a9sZFl5pfDBcxFaW0_tR-267" value="" style="endArrow=blockThin;html=1;rounded=0;exitX=0;exitY=0.5;exitDx=0;exitDy=0;endFill=1;strokeColor=light-dark(#5C6A72,#D3C6AA);fontSize=17;fontFamily=LXGW WenKai Mono;fontColor=#5C6A72;fillColor=none;" parent="1" source="a9sZFl5pfDBcxFaW0_tR-266" edge="1">
          <mxGeometry width="50" height="50" relative="1" as="geometry">
            <mxPoint x="1950" y="2929.6" as="sourcePoint" />
            <mxPoint x="1900" y="2935" as="targetPoint" />
          </mxGeometry>
        </mxCell>
        <mxCell id="a9sZFl5pfDBcxFaW0_tR-268" value="&lt;font style=&quot;color: light-dark(rgb(92, 106, 114), rgb(211, 198, 170));&quot;&gt;新 PC&lt;/font&gt;" style="rounded=0;whiteSpace=wrap;html=1;strokeWidth=1;fillColor=none;strokeColor=light-dark(#5C6A72,#D3C6AA);fontColor=light-dark(#5C6A72,#D3C6AA);fillOpacity=50;labelBackgroundColor=none;fontSize=17;fontFamily=LXGW WenKai Mono;" parent="1" vertex="1">
          <mxGeometry x="2040" y="2920" width="80" height="30" as="geometry" />
        </mxCell>
        <mxCell id="a9sZFl5pfDBcxFaW0_tR-269" value="" style="endArrow=blockThin;html=1;rounded=0;exitX=0;exitY=0.5;exitDx=0;exitDy=0;endFill=1;entryX=1;entryY=0.5;entryDx=0;entryDy=0;strokeColor=light-dark(#5C6A72,#D3C6AA);fontSize=17;fontFamily=LXGW WenKai Mono;fontColor=#5C6A72;fillColor=none;" parent="1" source="a9sZFl5pfDBcxFaW0_tR-268" edge="1">
          <mxGeometry width="50" height="50" relative="1" as="geometry">
            <mxPoint x="2040" y="2934.6" as="sourcePoint" />
            <mxPoint x="2010" y="2934.6" as="targetPoint" />
          </mxGeometry>
        </mxCell>
        <mxCell id="a9sZFl5pfDBcxFaW0_tR-270" value="&lt;span style=&quot;text-wrap-mode: nowrap;&quot;&gt;&lt;font style=&quot;color: light-dark(rgb(248, 85, 82), rgb(230, 126, 128));&quot;&gt;= jumptable + tab3*2 = 0x1004 + 0xA*2 = 0x1018&lt;/font&gt;&lt;/span&gt;" style="rounded=0;whiteSpace=wrap;html=1;strokeWidth=1;fillColor=none;strokeColor=none;fontColor=light-dark(#5C6A72,#C1C1C1);fillOpacity=50;labelBackgroundColor=none;gradientColor=none;fontFamily=LXGW WenKai Mono;align=left;fontSize=17;" parent="1" vertex="1">
          <mxGeometry x="2130" y="2920" width="335" height="30" as="geometry" />
        </mxCell>
        <mxCell id="a9sZFl5pfDBcxFaW0_tR-271" value="" style="rounded=0;whiteSpace=wrap;html=1;fillColor=#dae8fc;strokeColor=#6c8ebf;" parent="1" vertex="1">
          <mxGeometry x="1760" y="1990" width="1140" height="60" as="geometry" />
        </mxCell>
        <mxCell id="3W1kCxI-QPeqWdossqCd-1" value="&lt;span style=&quot;text-wrap-mode: nowrap;&quot;&gt;&lt;font style=&quot;color: light-dark(rgb(92, 106, 114), rgb(211, 198, 170));&quot;&gt;.align 2&lt;/font&gt;&lt;/span&gt;" style="rounded=0;whiteSpace=wrap;html=1;strokeWidth=1;fillColor=light-dark(#A7C080,#A7C080);strokeColor=none;fontColor=light-dark(#5C6A72,#D3C6AA);fillOpacity=50;labelBackgroundColor=none;fontFamily=LXGW WenKai Mono;fontSize=17;" vertex="1" parent="1">
          <mxGeometry x="2010" y="1080" width="80" height="30" as="geometry" />
        </mxCell>
        <mxCell id="3W1kCxI-QPeqWdossqCd-2" value="&lt;font style=&quot;color: light-dark(rgb(92, 106, 114), rgb(211, 198, 170));&quot;&gt;取指&lt;/font&gt;" style="rounded=0;whiteSpace=wrap;html=1;strokeWidth=1;fillColor=light-dark(#F85552,#E67E80);strokeColor=light-dark(#5C6A72,#D3C6AA);perimeterSpacing=0;glass=0;shadow=0;fillStyle=solid;fillOpacity=50;fontColor=light-dark(#5C6A72,#D3C6AA);fontFamily=LXGW WenKai Mono;fontSize=17;" vertex="1" parent="1">
          <mxGeometry x="2960" y="688.93" width="80" height="30" as="geometry" />
        </mxCell>
        <mxCell id="3W1kCxI-QPeqWdossqCd-3" value="&lt;font style=&quot;color: light-dark(rgb(92, 106, 114), rgb(211, 198, 170));&quot;&gt;执行&lt;/font&gt;" style="rounded=0;whiteSpace=wrap;html=1;strokeWidth=1;fillColor=light-dark(#3A94C5,#7FBBB3);strokeColor=light-dark(#5C6A72,#D3C6AA);fontColor=light-dark(#5C6A72,#D3C6AA);fillOpacity=50;fontFamily=LXGW WenKai Mono;fontSize=17;" vertex="1" parent="1">
          <mxGeometry x="3120" y="688.9299999999998" width="80" height="30" as="geometry" />
        </mxCell>
        <mxCell id="3W1kCxI-QPeqWdossqCd-4" value="&lt;font style=&quot;color: light-dark(rgb(92, 106, 114), rgb(211, 198, 170));&quot;&gt;解码&lt;/font&gt;" style="rounded=0;whiteSpace=wrap;html=1;strokeWidth=1;fillColor=light-dark(#8DA101,#A7C080);strokeColor=light-dark(#5C6A72,#D3C6AA);fontColor=light-dark(#5C6A72,#D3C6AA);fillOpacity=50;fontFamily=LXGW WenKai Mono;fontSize=17;" vertex="1" parent="1">
          <mxGeometry x="3040" y="688.9299999999998" width="80" height="30" as="geometry" />
        </mxCell>
        <mxCell id="3W1kCxI-QPeqWdossqCd-5" value="" style="endArrow=blockThin;html=1;rounded=0;endFill=1;strokeColor=light-dark(#5C6A72,#D3C6AA);fontSize=17;fontFamily=LXGW WenKai Mono;fontColor=light-dark(#5C6A72,#D3C6AA);" edge="1" parent="1">
          <mxGeometry width="50" height="50" relative="1" as="geometry">
            <mxPoint x="2720" y="738.9299999999998" as="sourcePoint" />
            <mxPoint x="3220" y="738.6299999999999" as="targetPoint" />
          </mxGeometry>
        </mxCell>
        <mxCell id="3W1kCxI-QPeqWdossqCd-6" value="&lt;span style=&quot;text-align: center; text-wrap-mode: nowrap;&quot;&gt;&lt;font style=&quot;color: light-dark(rgb(92, 106, 114), rgb(211, 198, 170));&quot;&gt;指令 N&lt;/font&gt;&lt;/span&gt;" style="rounded=0;whiteSpace=wrap;html=1;strokeWidth=1;fillColor=none;strokeColor=none;fontColor=light-dark(#5C6A72,#D3C6AA);fillOpacity=50;fontFamily=LXGW WenKai Mono;align=left;fontSize=17;" vertex="1" parent="1">
          <mxGeometry x="2600" y="599.2299999999998" width="80" height="29.7" as="geometry" />
        </mxCell>
        <mxCell id="3W1kCxI-QPeqWdossqCd-7" value="&lt;span style=&quot;text-align: center; text-wrap-mode: nowrap;&quot;&gt;&lt;font style=&quot;color: light-dark(rgb(92, 106, 114), rgb(211, 198, 170));&quot;&gt;指令 N + 1&lt;/font&gt;&lt;/span&gt;" style="rounded=0;whiteSpace=wrap;html=1;strokeWidth=1;fillColor=none;strokeColor=none;fontColor=light-dark(#5C6A72,#D3C6AA);fillOpacity=50;fontFamily=LXGW WenKai Mono;align=left;fontSize=17;" vertex="1" parent="1">
          <mxGeometry x="2600" y="629.2299999999998" width="80" height="29.7" as="geometry" />
        </mxCell>
        <mxCell id="3W1kCxI-QPeqWdossqCd-8" value="&lt;span style=&quot;text-align: center; text-wrap-mode: nowrap;&quot;&gt;&lt;font style=&quot;color: light-dark(rgb(92, 106, 114), rgb(211, 198, 170));&quot;&gt;指令 N + 2&lt;/font&gt;&lt;/span&gt;" style="rounded=0;whiteSpace=wrap;html=1;strokeWidth=1;fillColor=none;strokeColor=none;fontColor=light-dark(#5C6A72,#D3C6AA);fillOpacity=50;fontFamily=LXGW WenKai Mono;align=left;fontSize=17;" vertex="1" parent="1">
          <mxGeometry x="2600" y="659.2299999999998" width="80" height="29.7" as="geometry" />
        </mxCell>
        <mxCell id="3W1kCxI-QPeqWdossqCd-9" value="&lt;span style=&quot;text-align: center; text-wrap-mode: nowrap;&quot;&gt;&lt;font style=&quot;color: light-dark(rgb(92, 106, 114), rgb(211, 198, 170));&quot;&gt;指令 N + 3&lt;/font&gt;&lt;/span&gt;" style="rounded=0;whiteSpace=wrap;html=1;strokeWidth=1;fillColor=none;strokeColor=none;fontColor=light-dark(#5C6A72,#D3C6AA);fillOpacity=50;fontFamily=LXGW WenKai Mono;align=left;fontSize=17;" vertex="1" parent="1">
          <mxGeometry x="2600" y="688.9299999999998" width="80" height="30" as="geometry" />
        </mxCell>
        <mxCell id="3W1kCxI-QPeqWdossqCd-10" value="&lt;font style=&quot;color: light-dark(rgb(92, 106, 114), rgb(211, 198, 170));&quot;&gt;取指&lt;/font&gt;" style="rounded=0;whiteSpace=wrap;html=1;strokeWidth=1;fillColor=light-dark(#F85552,#E67E80);strokeColor=light-dark(#5C6A72,#D3C6AA);perimeterSpacing=0;glass=0;shadow=0;fillStyle=solid;fillOpacity=50;fontColor=light-dark(#5C6A72,#D3C6AA);fontFamily=LXGW WenKai Mono;fontSize=17;" vertex="1" parent="1">
          <mxGeometry x="2880" y="658.93" width="80" height="30" as="geometry" />
        </mxCell>
        <mxCell id="3W1kCxI-QPeqWdossqCd-11" value="&lt;font style=&quot;color: light-dark(rgb(92, 106, 114), rgb(211, 198, 170));&quot;&gt;执行&lt;/font&gt;" style="rounded=0;whiteSpace=wrap;html=1;strokeWidth=1;fillColor=light-dark(#3A94C5,#7FBBB3);strokeColor=light-dark(#5C6A72,#D3C6AA);fontColor=light-dark(#5C6A72,#D3C6AA);fillOpacity=50;fontFamily=LXGW WenKai Mono;fontSize=17;" vertex="1" parent="1">
          <mxGeometry x="3040" y="658.9299999999998" width="80" height="30" as="geometry" />
        </mxCell>
        <mxCell id="3W1kCxI-QPeqWdossqCd-12" value="&lt;font style=&quot;color: light-dark(rgb(92, 106, 114), rgb(211, 198, 170));&quot;&gt;解码&lt;/font&gt;" style="rounded=0;whiteSpace=wrap;html=1;strokeWidth=1;fillColor=light-dark(#8DA101,#A7C080);strokeColor=light-dark(#5C6A72,#D3C6AA);fontColor=light-dark(#5C6A72,#D3C6AA);fillOpacity=50;fontFamily=LXGW WenKai Mono;fontSize=17;" vertex="1" parent="1">
          <mxGeometry x="2960" y="658.9299999999998" width="80" height="30" as="geometry" />
        </mxCell>
        <mxCell id="3W1kCxI-QPeqWdossqCd-13" value="&lt;font style=&quot;color: light-dark(rgb(92, 106, 114), rgb(211, 198, 170));&quot;&gt;取指&lt;/font&gt;" style="rounded=0;whiteSpace=wrap;html=1;strokeWidth=1;fillColor=light-dark(#F85552,#E67E80);strokeColor=light-dark(#5C6A72,#D3C6AA);perimeterSpacing=0;glass=0;shadow=0;fillStyle=solid;fillOpacity=50;fontColor=light-dark(#5C6A72,#D3C6AA);fontFamily=LXGW WenKai Mono;fontSize=17;" vertex="1" parent="1">
          <mxGeometry x="2800" y="628.9300000000001" width="80" height="30" as="geometry" />
        </mxCell>
        <mxCell id="3W1kCxI-QPeqWdossqCd-14" value="&lt;font style=&quot;color: light-dark(rgb(92, 106, 114), rgb(211, 198, 170));&quot;&gt;执行&lt;/font&gt;" style="rounded=0;whiteSpace=wrap;html=1;strokeWidth=1;fillColor=light-dark(#3A94C5,#7FBBB3);strokeColor=light-dark(#5C6A72,#D3C6AA);fontColor=light-dark(#5C6A72,#D3C6AA);fillOpacity=50;fontFamily=LXGW WenKai Mono;fontSize=17;" vertex="1" parent="1">
          <mxGeometry x="2960" y="628.93" width="80" height="30" as="geometry" />
        </mxCell>
        <mxCell id="3W1kCxI-QPeqWdossqCd-15" value="&lt;font style=&quot;color: light-dark(rgb(92, 106, 114), rgb(211, 198, 170));&quot;&gt;解码&lt;/font&gt;" style="rounded=0;whiteSpace=wrap;html=1;strokeWidth=1;fillColor=light-dark(#8DA101,#A7C080);strokeColor=light-dark(#5C6A72,#D3C6AA);fontColor=light-dark(#5C6A72,#D3C6AA);fillOpacity=50;fontFamily=LXGW WenKai Mono;fontSize=17;" vertex="1" parent="1">
          <mxGeometry x="2880" y="628.93" width="80" height="30" as="geometry" />
        </mxCell>
        <mxCell id="3W1kCxI-QPeqWdossqCd-16" value="&lt;font style=&quot;color: light-dark(rgb(92, 106, 114), rgb(211, 198, 170));&quot;&gt;取指&lt;/font&gt;" style="rounded=0;whiteSpace=wrap;html=1;strokeWidth=1;fillColor=light-dark(#F85552,#E67E80);strokeColor=light-dark(#5C6A72,#D3C6AA);perimeterSpacing=0;glass=0;shadow=0;fillStyle=solid;fillOpacity=50;fontColor=light-dark(#5C6A72,#D3C6AA);fontFamily=LXGW WenKai Mono;fontSize=17;" vertex="1" parent="1">
          <mxGeometry x="2720" y="598.9300000000001" width="80" height="30" as="geometry" />
        </mxCell>
        <mxCell id="3W1kCxI-QPeqWdossqCd-17" value="&lt;font style=&quot;color: light-dark(rgb(92, 106, 114), rgb(211, 198, 170));&quot;&gt;执行&lt;/font&gt;" style="rounded=0;whiteSpace=wrap;html=1;strokeWidth=1;fillColor=light-dark(#3A94C5,#7FBBB3);strokeColor=light-dark(#5C6A72,#D3C6AA);fontColor=light-dark(#5C6A72,#D3C6AA);fillOpacity=50;fontFamily=LXGW WenKai Mono;fontSize=17;" vertex="1" parent="1">
          <mxGeometry x="2880" y="598.93" width="80" height="30" as="geometry" />
        </mxCell>
        <mxCell id="3W1kCxI-QPeqWdossqCd-18" value="&lt;font style=&quot;color: light-dark(rgb(92, 106, 114), rgb(211, 198, 170));&quot;&gt;解码&lt;/font&gt;" style="rounded=0;whiteSpace=wrap;html=1;strokeWidth=1;fillColor=light-dark(#8DA101,#A7C080);strokeColor=light-dark(#5C6A72,#D3C6AA);fontColor=light-dark(#5C6A72,#D3C6AA);fillOpacity=50;fontFamily=LXGW WenKai Mono;fontSize=17;" vertex="1" parent="1">
          <mxGeometry x="2800" y="598.93" width="80" height="30" as="geometry" />
        </mxCell>
      </root>
    </mxGraphModel>
  </diagram>
</mxfile>
